<mxfile host="65bd71144e">
    <diagram id="ob6G64-pZK0G0_Q5zdzx" name="Page-1">
        <mxGraphModel dx="1885" dy="1076" grid="1" gridSize="10" guides="1" tooltips="1" connect="1" arrows="1" fold="1" page="1" pageScale="1" pageWidth="850" pageHeight="1100" math="0" shadow="0">
            <root>
                <mxCell id="0"/>
                <mxCell id="1" parent="0"/>
                <mxCell id="cTdeH06Kf2I8pl0_uj5c-211" value="ns:AgentRole" style="rounded=0;whiteSpace=wrap;html=1;snapToPoint=1;points=[[0.1,0],[0.2,0],[0.3,0],[0.4,0],[0.5,0],[0.6,0],[0.7,0],[0.8,0],[0.9,0],[0,0.1],[0,0.3],[0,0.5],[0,0.7],[0,0.9],[0.1,1],[0.2,1],[0.3,1],[0.4,1],[0.5,1],[0.6,1],[0.7,1],[0.8,1],[0.9,1],[1,0.1],[1,0.3],[1,0.5],[1,0.7],[1,0.9]];" parent="1" vertex="1">
                    <mxGeometry x="290" y="250" width="100" height="30" as="geometry"/>
                </mxCell>
                <mxCell id="cTdeH06Kf2I8pl0_uj5c-212" value="" style="endArrow=classic;html=1;endSize=8;arcSize=0;entryX=0.2;entryY=1;entryDx=0;entryDy=0;exitX=1;exitY=0.1;exitDx=0;exitDy=0;rounded=0;" parent="1" source="cTdeH06Kf2I8pl0_uj5c-214" target="cTdeH06Kf2I8pl0_uj5c-211" edge="1">
                    <mxGeometry width="50" height="50" relative="1" as="geometry">
                        <mxPoint x="460" y="270" as="sourcePoint"/>
                        <mxPoint x="300" y="500" as="targetPoint"/>
                    </mxGeometry>
                </mxCell>
                <mxCell id="cTdeH06Kf2I8pl0_uj5c-213" value="&lt;div&gt;&lt;/div&gt;ns:performsAgentRole" style="text;html=1;align=center;verticalAlign=middle;resizable=0;points=[];labelBackgroundColor=#ffffff;" parent="cTdeH06Kf2I8pl0_uj5c-212" vertex="1" connectable="0">
                    <mxGeometry x="-0.1269" relative="1" as="geometry">
                        <mxPoint as="offset"/>
                    </mxGeometry>
                </mxCell>
                <mxCell id="cTdeH06Kf2I8pl0_uj5c-214" value="ns:Agent" style="rounded=0;whiteSpace=wrap;html=1;snapToPoint=1;points=[[0.1,0],[0.2,0],[0.3,0],[0.4,0],[0.5,0],[0.6,0],[0.7,0],[0.8,0],[0.9,0],[0,0.1],[0,0.3],[0,0.5],[0,0.7],[0,0.9],[0.1,1],[0.2,1],[0.3,1],[0.4,1],[0.5,1],[0.6,1],[0.7,1],[0.8,1],[0.9,1],[1,0.1],[1,0.3],[1,0.5],[1,0.7],[1,0.9]];" parent="1" vertex="1">
                    <mxGeometry x="100" y="310" width="100" height="30" as="geometry"/>
                </mxCell>
                <mxCell id="cTdeH06Kf2I8pl0_uj5c-215" value="" style="endArrow=classic;html=1;endSize=8;arcSize=0;exitX=1;exitY=0.5;exitDx=0;exitDy=0;entryX=0;entryY=0.5;entryDx=0;entryDy=0;rounded=0;" parent="1" source="cTdeH06Kf2I8pl0_uj5c-211" edge="1">
                    <mxGeometry width="50" height="50" relative="1" as="geometry">
                        <mxPoint x="390" y="215" as="sourcePoint"/>
                        <mxPoint x="540" y="265" as="targetPoint"/>
                    </mxGeometry>
                </mxCell>
                <mxCell id="cTdeH06Kf2I8pl0_uj5c-216" value="&lt;div&gt;&lt;/div&gt;ns:hasTemporalExtent" style="text;html=1;align=center;verticalAlign=middle;resizable=0;points=[];labelBackgroundColor=#ffffff;" parent="cTdeH06Kf2I8pl0_uj5c-215" vertex="1" connectable="0">
                    <mxGeometry x="-0.1269" relative="1" as="geometry">
                        <mxPoint as="offset"/>
                    </mxGeometry>
                </mxCell>
                <mxCell id="cTdeH06Kf2I8pl0_uj5c-217" value="" style="endArrow=classic;html=1;endSize=8;arcSize=0;entryX=0.2;entryY=0;entryDx=0;entryDy=0;exitX=1;exitY=0.9;exitDx=0;exitDy=0;rounded=0;" parent="1" source="cTdeH06Kf2I8pl0_uj5c-219" target="cTdeH06Kf2I8pl0_uj5c-211" edge="1">
                    <mxGeometry width="50" height="50" relative="1" as="geometry">
                        <mxPoint x="460" y="130" as="sourcePoint"/>
                        <mxPoint x="310" y="140" as="targetPoint"/>
                    </mxGeometry>
                </mxCell>
                <mxCell id="cTdeH06Kf2I8pl0_uj5c-218" value="&lt;div&gt;&lt;/div&gt;ns:providesAgentRole" style="text;html=1;align=center;verticalAlign=middle;resizable=0;points=[];labelBackgroundColor=#ffffff;" parent="cTdeH06Kf2I8pl0_uj5c-217" vertex="1" connectable="0">
                    <mxGeometry x="-0.1269" relative="1" as="geometry">
                        <mxPoint as="offset"/>
                    </mxGeometry>
                </mxCell>
                <mxCell id="cTdeH06Kf2I8pl0_uj5c-219" value="owl:Thing" style="rounded=0;whiteSpace=wrap;html=1;snapToPoint=1;points=[[0.1,0],[0.2,0],[0.3,0],[0.4,0],[0.5,0],[0.6,0],[0.7,0],[0.8,0],[0.9,0],[0,0.1],[0,0.3],[0,0.5],[0,0.7],[0,0.9],[0.1,1],[0.2,1],[0.3,1],[0.4,1],[0.5,1],[0.6,1],[0.7,1],[0.8,1],[0.9,1],[1,0.1],[1,0.3],[1,0.5],[1,0.7],[1,0.9]];" parent="1" vertex="1">
                    <mxGeometry x="100" y="180" width="100" height="30" as="geometry"/>
                </mxCell>
                <mxCell id="cTdeH06Kf2I8pl0_uj5c-230" value="" style="endArrow=block;html=1;fontColor=#000099;exitX=0.5;exitY=0;exitDx=0;exitDy=0;endFill=0;entryX=0.5;entryY=1;entryDx=0;entryDy=0;endSize=8;arcSize=0;rounded=0;" parent="1" source="cTdeH06Kf2I8pl0_uj5c-232" target="cTdeH06Kf2I8pl0_uj5c-231" edge="1">
                    <mxGeometry width="50" height="50" relative="1" as="geometry">
                        <mxPoint x="705" y="230" as="sourcePoint"/>
                        <mxPoint x="862.9999999999893" y="230" as="targetPoint"/>
                    </mxGeometry>
                </mxCell>
                <mxCell id="cTdeH06Kf2I8pl0_uj5c-231" value="ns:Collection" style="rounded=0;whiteSpace=wrap;html=1;snapToPoint=1;points=[[0.1,0],[0.2,0],[0.3,0],[0.4,0],[0.5,0],[0.6,0],[0.7,0],[0.8,0],[0.9,0],[0,0.1],[0,0.3],[0,0.5],[0,0.7],[0,0.9],[0.1,1],[0.2,1],[0.3,1],[0.4,1],[0.5,1],[0.6,1],[0.7,1],[0.8,1],[0.9,1],[1,0.1],[1,0.3],[1,0.5],[1,0.7],[1,0.9]];" parent="1" vertex="1">
                    <mxGeometry x="930" y="190" width="100" height="30" as="geometry"/>
                </mxCell>
                <mxCell id="cTdeH06Kf2I8pl0_uj5c-232" value="ns:Bag" style="rounded=0;whiteSpace=wrap;html=1;snapToPoint=1;points=[[0.1,0],[0.2,0],[0.3,0],[0.4,0],[0.5,0],[0.6,0],[0.7,0],[0.8,0],[0.9,0],[0,0.1],[0,0.3],[0,0.5],[0,0.7],[0,0.9],[0.1,1],[0.2,1],[0.3,1],[0.4,1],[0.5,1],[0.6,1],[0.7,1],[0.8,1],[0.9,1],[1,0.1],[1,0.3],[1,0.5],[1,0.7],[1,0.9]];" parent="1" vertex="1">
                    <mxGeometry x="930" y="290" width="100" height="30" as="geometry"/>
                </mxCell>
                <mxCell id="cTdeH06Kf2I8pl0_uj5c-233" value="ns:itemOf" style="edgeStyle=none;html=1;exitX=1;exitY=0.5;exitDx=0;exitDy=0;entryX=0;entryY=0.5;entryDx=0;entryDy=0;rounded=0;" parent="1" source="cTdeH06Kf2I8pl0_uj5c-234" target="cTdeH06Kf2I8pl0_uj5c-232" edge="1">
                    <mxGeometry relative="1" as="geometry"/>
                </mxCell>
                <mxCell id="cTdeH06Kf2I8pl0_uj5c-234" value="ns:BagItem" style="rounded=0;whiteSpace=wrap;html=1;snapToPoint=1;points=[[0.1,0],[0.2,0],[0.3,0],[0.4,0],[0.5,0],[0.6,0],[0.7,0],[0.8,0],[0.9,0],[0,0.1],[0,0.3],[0,0.5],[0,0.7],[0,0.9],[0.1,1],[0.2,1],[0.3,1],[0.4,1],[0.5,1],[0.6,1],[0.7,1],[0.8,1],[0.9,1],[1,0.1],[1,0.3],[1,0.5],[1,0.7],[1,0.9]];" parent="1" vertex="1">
                    <mxGeometry x="600" y="290" width="100" height="30" as="geometry"/>
                </mxCell>
                <mxCell id="cTdeH06Kf2I8pl0_uj5c-235" value="ns:ParticipantRole" style="rounded=0;whiteSpace=wrap;html=1;snapToPoint=1;points=[[0.1,0],[0.2,0],[0.3,0],[0.4,0],[0.5,0],[0.6,0],[0.7,0],[0.8,0],[0.9,0],[0,0.1],[0,0.3],[0,0.5],[0,0.7],[0,0.9],[0.1,1],[0.2,1],[0.3,1],[0.4,1],[0.5,1],[0.6,1],[0.7,1],[0.8,1],[0.9,1],[1,0.1],[1,0.3],[1,0.5],[1,0.7],[1,0.9]];" parent="1" vertex="1">
                    <mxGeometry x="1445" y="290" width="150" height="30" as="geometry"/>
                </mxCell>
                <mxCell id="cTdeH06Kf2I8pl0_uj5c-236" value="ns:Event" style="rounded=0;whiteSpace=wrap;html=1;snapToPoint=1;points=[[0.1,0],[0.2,0],[0.3,0],[0.4,0],[0.5,0],[0.6,0],[0.7,0],[0.8,0],[0.9,0],[0,0.1],[0,0.3],[0,0.5],[0,0.7],[0,0.9],[0.1,1],[0.2,1],[0.3,1],[0.4,1],[0.5,1],[0.6,1],[0.7,1],[0.8,1],[0.9,1],[1,0.1],[1,0.3],[1,0.5],[1,0.7],[1,0.9]];" parent="1" vertex="1">
                    <mxGeometry x="1312.46" y="191.63" width="120" height="60" as="geometry"/>
                </mxCell>
                <mxCell id="cTdeH06Kf2I8pl0_uj5c-237" value="" style="endArrow=classic;html=1;exitX=1;exitY=0.9;exitDx=0;exitDy=0;entryX=0.2;entryY=0;entryDx=0;entryDy=0;endSize=8;arcSize=0;rounded=0;" parent="1" source="cTdeH06Kf2I8pl0_uj5c-236" target="cTdeH06Kf2I8pl0_uj5c-235" edge="1">
                    <mxGeometry width="50" height="50" relative="1" as="geometry">
                        <mxPoint x="1283.5" y="388.3299999999999" as="sourcePoint"/>
                        <mxPoint x="1495.5000000000002" y="388.3299999999999" as="targetPoint"/>
                    </mxGeometry>
                </mxCell>
                <mxCell id="cTdeH06Kf2I8pl0_uj5c-238" value="&lt;div&gt;ns:providesParticipantRole&lt;/div&gt;" style="text;html=1;align=center;verticalAlign=middle;resizable=0;points=[];labelBackgroundColor=#ffffff;" parent="cTdeH06Kf2I8pl0_uj5c-237" vertex="1" connectable="0">
                    <mxGeometry x="-0.1269" relative="1" as="geometry">
                        <mxPoint x="4.17" as="offset"/>
                    </mxGeometry>
                </mxCell>
                <mxCell id="cTdeH06Kf2I8pl0_uj5c-239" value="" style="endArrow=classic;html=1;entryX=0.9;entryY=0;entryDx=0;entryDy=0;endSize=8;arcSize=0;rounded=0;" parent="1" target="cTdeH06Kf2I8pl0_uj5c-241" edge="1">
                    <mxGeometry width="50" height="50" relative="1" as="geometry">
                        <mxPoint x="1315" y="245" as="sourcePoint"/>
                        <mxPoint x="1223.5" y="285" as="targetPoint"/>
                    </mxGeometry>
                </mxCell>
                <mxCell id="cTdeH06Kf2I8pl0_uj5c-240" value="&lt;span style=&quot;background-color: rgb(248 , 249 , 250)&quot;&gt;ns:hasSpatiotemporalExtent&lt;br&gt;&lt;/span&gt;" style="text;html=1;align=center;verticalAlign=middle;resizable=0;points=[];labelBackgroundColor=#ffffff;" parent="cTdeH06Kf2I8pl0_uj5c-239" vertex="1" connectable="0">
                    <mxGeometry x="-0.1269" relative="1" as="geometry">
                        <mxPoint x="-6" as="offset"/>
                    </mxGeometry>
                </mxCell>
                <mxCell id="cTdeH06Kf2I8pl0_uj5c-241" value="ns:SpatiotemporalExtent" style="rounded=0;whiteSpace=wrap;html=1;snapToPoint=1;points=[[0.1,0],[0.2,0],[0.3,0],[0.4,0],[0.5,0],[0.6,0],[0.7,0],[0.8,0],[0.9,0],[0,0.1],[0,0.3],[0,0.5],[0,0.7],[0,0.9],[0.1,1],[0.2,1],[0.3,1],[0.4,1],[0.5,1],[0.6,1],[0.7,1],[0.8,1],[0.9,1],[1,0.1],[1,0.3],[1,0.5],[1,0.7],[1,0.9]];" parent="1" vertex="1">
                    <mxGeometry x="1135" y="290" width="151.5" height="30" as="geometry"/>
                </mxCell>
                <mxCell id="cTdeH06Kf2I8pl0_uj5c-242" value="" style="endArrow=classic;html=1;exitX=0.5;exitY=0;exitDx=0;exitDy=0;entryX=1;entryY=0.3;entryDx=0;entryDy=0;endSize=8;arcSize=0;curved=1;edgeStyle=orthogonalEdgeStyle;rounded=0;" parent="1" source="cTdeH06Kf2I8pl0_uj5c-236" target="cTdeH06Kf2I8pl0_uj5c-236" edge="1">
                    <mxGeometry width="50" height="50" relative="1" as="geometry">
                        <mxPoint x="1312.46" y="111.63" as="sourcePoint"/>
                        <mxPoint x="1509.46" y="111.63" as="targetPoint"/>
                        <Array as="points">
                            <mxPoint x="1372.46" y="151.63"/>
                            <mxPoint x="1462.46" y="151.63"/>
                            <mxPoint x="1462.46" y="209.63"/>
                        </Array>
                    </mxGeometry>
                </mxCell>
                <mxCell id="cTdeH06Kf2I8pl0_uj5c-243" value="&lt;div&gt;ns:subEventOf&lt;br&gt;&lt;/div&gt;" style="text;html=1;align=center;verticalAlign=middle;resizable=0;points=[];labelBackgroundColor=#ffffff;" parent="cTdeH06Kf2I8pl0_uj5c-242" vertex="1" connectable="0">
                    <mxGeometry x="-0.1269" relative="1" as="geometry">
                        <mxPoint as="offset"/>
                    </mxGeometry>
                </mxCell>
                <mxCell id="cTdeH06Kf2I8pl0_uj5c-244" value="ns:Type" style="rounded=0;whiteSpace=wrap;html=1;snapToPoint=1;points=[[0.1,0],[0.2,0],[0.3,0],[0.4,0],[0.5,0],[0.6,0],[0.7,0],[0.8,0],[0.9,0],[0,0.1],[0,0.3],[0,0.5],[0,0.7],[0,0.9],[0.1,1],[0.2,1],[0.3,1],[0.4,1],[0.5,1],[0.6,1],[0.7,1],[0.8,1],[0.9,1],[1,0.1],[1,0.3],[1,0.5],[1,0.7],[1,0.9]];" parent="1" vertex="1">
                    <mxGeometry x="2120" y="1095" width="100" height="30" as="geometry"/>
                </mxCell>
                <mxCell id="cTdeH06Kf2I8pl0_uj5c-245" value="" style="endArrow=classic;html=1;exitX=1;exitY=0.5;exitDx=0;exitDy=0;endSize=8;entryX=0;entryY=0.5;entryDx=0;entryDy=0;arcSize=0;rounded=0;" parent="1" source="cTdeH06Kf2I8pl0_uj5c-247" target="cTdeH06Kf2I8pl0_uj5c-244" edge="1">
                    <mxGeometry width="50" height="50" relative="1" as="geometry">
                        <mxPoint x="1935" y="1110" as="sourcePoint"/>
                        <mxPoint x="2130" y="1115" as="targetPoint"/>
                    </mxGeometry>
                </mxCell>
                <mxCell id="cTdeH06Kf2I8pl0_uj5c-246" value="ns:hasType" style="text;html=1;align=center;verticalAlign=middle;resizable=0;points=[];labelBackgroundColor=#ffffff;" parent="cTdeH06Kf2I8pl0_uj5c-245" vertex="1" connectable="0">
                    <mxGeometry x="-0.1269" relative="1" as="geometry">
                        <mxPoint as="offset"/>
                    </mxGeometry>
                </mxCell>
                <mxCell id="cTdeH06Kf2I8pl0_uj5c-247" value="owl:Thing" style="rounded=0;whiteSpace=wrap;html=1;snapToPoint=1;points=[[0.1,0],[0.2,0],[0.3,0],[0.4,0],[0.5,0],[0.6,0],[0.7,0],[0.8,0],[0.9,0],[0,0.1],[0,0.3],[0,0.5],[0,0.7],[0,0.9],[0.1,1],[0.2,1],[0.3,1],[0.4,1],[0.5,1],[0.6,1],[0.7,1],[0.8,1],[0.9,1],[1,0.1],[1,0.3],[1,0.5],[1,0.7],[1,0.9]];" parent="1" vertex="1">
                    <mxGeometry x="1830" y="1095" width="100" height="30" as="geometry"/>
                </mxCell>
                <mxCell id="cTdeH06Kf2I8pl0_uj5c-248" value="owl:Thing" style="rounded=0;whiteSpace=wrap;html=1;snapToPoint=1;points=[[0.1,0],[0.2,0],[0.3,0],[0.4,0],[0.5,0],[0.6,0],[0.7,0],[0.8,0],[0.9,0],[0,0.1],[0,0.3],[0,0.5],[0,0.7],[0,0.9],[0.1,1],[0.2,1],[0.3,1],[0.4,1],[0.5,1],[0.6,1],[0.7,1],[0.8,1],[0.9,1],[1,0.1],[1,0.3],[1,0.5],[1,0.7],[1,0.9]];" parent="1" vertex="1">
                    <mxGeometry x="1850" y="1315" width="100" height="30" as="geometry"/>
                </mxCell>
                <mxCell id="cTdeH06Kf2I8pl0_uj5c-249" value="" style="endArrow=classic;html=1;exitX=1;exitY=0.5;exitDx=0;exitDy=0;entryX=0;entryY=0.5;entryDx=0;entryDy=0;endSize=8;arcSize=0;rounded=0;" parent="1" source="cTdeH06Kf2I8pl0_uj5c-248" target="cTdeH06Kf2I8pl0_uj5c-252" edge="1">
                    <mxGeometry width="50" height="50" relative="1" as="geometry">
                        <mxPoint x="1751" y="1433.33" as="sourcePoint"/>
                        <mxPoint x="2080" y="1330" as="targetPoint"/>
                    </mxGeometry>
                </mxCell>
                <mxCell id="cTdeH06Kf2I8pl0_uj5c-250" value="&lt;div&gt;ns:hasIdentifier&lt;/div&gt;" style="text;html=1;align=center;verticalAlign=middle;resizable=0;points=[];labelBackgroundColor=#ffffff;" parent="cTdeH06Kf2I8pl0_uj5c-249" vertex="1" connectable="0">
                    <mxGeometry x="-0.1269" relative="1" as="geometry">
                        <mxPoint x="4.17" as="offset"/>
                    </mxGeometry>
                </mxCell>
                <mxCell id="cTdeH06Kf2I8pl0_uj5c-251" value="ns:identifierAsText:string" style="rounded=0;whiteSpace=wrap;html=1;snapToPoint=1;points=[[0.1,0],[0.2,0],[0.3,0],[0.4,0],[0.5,0],[0.6,0],[0.7,0],[0.8,0],[0.9,0],[0,0.1],[0,0.3],[0,0.5],[0,0.7],[0,0.9],[0.1,1],[0.2,1],[0.3,1],[0.4,1],[0.5,1],[0.6,1],[0.7,1],[0.8,1],[0.9,1],[1,0.1],[1,0.3],[1,0.5],[1,0.7],[1,0.9]];dashed=1;" parent="1" vertex="1">
                    <mxGeometry x="2080" y="1345" width="179" height="30" as="geometry"/>
                </mxCell>
                <mxCell id="cTdeH06Kf2I8pl0_uj5c-252" value="ns:Identifier" style="rounded=0;whiteSpace=wrap;html=1;snapToPoint=1;points=[[0.1,0],[0.2,0],[0.3,0],[0.4,0],[0.5,0],[0.6,0],[0.7,0],[0.8,0],[0.9,0],[0,0.1],[0,0.3],[0,0.5],[0,0.7],[0,0.9],[0.1,1],[0.2,1],[0.3,1],[0.4,1],[0.5,1],[0.6,1],[0.7,1],[0.8,1],[0.9,1],[1,0.1],[1,0.3],[1,0.5],[1,0.7],[1,0.9]];" parent="1" vertex="1">
                    <mxGeometry x="2080" y="1315" width="179" height="30" as="geometry"/>
                </mxCell>
                <mxCell id="cTdeH06Kf2I8pl0_uj5c-253" value="ns:IDType" style="rounded=0;whiteSpace=wrap;html=1;snapToPoint=1;points=[[0.1,0],[0.2,0],[0.3,0],[0.4,0],[0.5,0],[0.6,0],[0.7,0],[0.8,0],[0.9,0],[0,0.1],[0,0.3],[0,0.5],[0,0.7],[0,0.9],[0.1,1],[0.2,1],[0.3,1],[0.4,1],[0.5,1],[0.6,1],[0.7,1],[0.8,1],[0.9,1],[1,0.1],[1,0.3],[1,0.5],[1,0.7],[1,0.9]];" parent="1" vertex="1">
                    <mxGeometry x="2119.5" y="1205" width="100" height="30" as="geometry"/>
                </mxCell>
                <mxCell id="cTdeH06Kf2I8pl0_uj5c-254" value="" style="endArrow=classic;html=1;exitX=0.5;exitY=0;exitDx=0;exitDy=0;entryX=0.5;entryY=1;entryDx=0;entryDy=0;endSize=8;arcSize=0;rounded=0;" parent="1" source="cTdeH06Kf2I8pl0_uj5c-252" target="cTdeH06Kf2I8pl0_uj5c-253" edge="1">
                    <mxGeometry width="50" height="50" relative="1" as="geometry">
                        <mxPoint x="2290" y="1210" as="sourcePoint"/>
                        <mxPoint x="2382" y="1313.33" as="targetPoint"/>
                    </mxGeometry>
                </mxCell>
                <mxCell id="cTdeH06Kf2I8pl0_uj5c-255" value="&lt;div&gt;ns:hasIdentifierType&lt;/div&gt;" style="text;html=1;align=center;verticalAlign=middle;resizable=0;points=[];labelBackgroundColor=#ffffff;" parent="cTdeH06Kf2I8pl0_uj5c-254" vertex="1" connectable="0">
                    <mxGeometry x="-0.1269" relative="1" as="geometry">
                        <mxPoint x="4.17" as="offset"/>
                    </mxGeometry>
                </mxCell>
                <mxCell id="cTdeH06Kf2I8pl0_uj5c-256" value="moo:InformationRealization" style="rounded=0;whiteSpace=wrap;html=1;snapToPoint=1;points=[[0.1,0],[0.2,0],[0.3,0],[0.4,0],[0.5,0],[0.6,0],[0.7,0],[0.8,0],[0.9,0],[0,0.1],[0,0.3],[0,0.5],[0,0.7],[0,0.9],[0.1,1],[0.2,1],[0.3,1],[0.4,1],[0.5,1],[0.6,1],[0.7,1],[0.8,1],[0.9,1],[1,0.1],[1,0.3],[1,0.5],[1,0.7],[1,0.9]];" parent="1" vertex="1">
                    <mxGeometry x="1200" y="1775" width="166" height="30" as="geometry"/>
                </mxCell>
                <mxCell id="cTdeH06Kf2I8pl0_uj5c-257" value="moo:InformationObject" style="rounded=0;whiteSpace=wrap;html=1;snapToPoint=1;points=[[0.1,0],[0.2,0],[0.3,0],[0.4,0],[0.5,0],[0.6,0],[0.7,0],[0.8,0],[0.9,0],[0,0.1],[0,0.3],[0,0.5],[0,0.7],[0,0.9],[0.1,1],[0.2,1],[0.3,1],[0.4,1],[0.5,1],[0.6,1],[0.7,1],[0.8,1],[0.9,1],[1,0.1],[1,0.3],[1,0.5],[1,0.7],[1,0.9]];" parent="1" vertex="1">
                    <mxGeometry x="1040" y="1665" width="160" height="30" as="geometry"/>
                </mxCell>
                <mxCell id="cTdeH06Kf2I8pl0_uj5c-258" value="" style="endArrow=classic;html=1;exitX=1;exitY=0.5;exitDx=0;exitDy=0;entryX=0.554;entryY=-0.067;entryDx=0;entryDy=0;endSize=8;arcSize=0;entryPerimeter=0;rounded=0;" parent="1" source="cTdeH06Kf2I8pl0_uj5c-257" target="cTdeH06Kf2I8pl0_uj5c-256" edge="1">
                    <mxGeometry width="50" height="50" relative="1" as="geometry">
                        <mxPoint x="906" y="1893.33" as="sourcePoint"/>
                        <mxPoint x="1118.0000000000002" y="1893.33" as="targetPoint"/>
                    </mxGeometry>
                </mxCell>
                <mxCell id="cTdeH06Kf2I8pl0_uj5c-259" value="moo:isRealizedBy" style="text;html=1;align=center;verticalAlign=middle;resizable=0;points=[];labelBackgroundColor=#ffffff;" parent="cTdeH06Kf2I8pl0_uj5c-258" vertex="1" connectable="0">
                    <mxGeometry x="-0.1269" relative="1" as="geometry">
                        <mxPoint x="4.17" as="offset"/>
                    </mxGeometry>
                </mxCell>
                <mxCell id="cTdeH06Kf2I8pl0_uj5c-260" value="moo:IdentifierType" style="rounded=0;whiteSpace=wrap;html=1;snapToPoint=1;points=[[0.1,0],[0.2,0],[0.3,0],[0.4,0],[0.5,0],[0.6,0],[0.7,0],[0.8,0],[0.9,0],[0,0.1],[0,0.3],[0,0.5],[0,0.7],[0,0.9],[0.1,1],[0.2,1],[0.3,1],[0.4,1],[0.5,1],[0.6,1],[0.7,1],[0.8,1],[0.9,1],[1,0.1],[1,0.3],[1,0.5],[1,0.7],[1,0.9]];" parent="1" vertex="1">
                    <mxGeometry x="1326" y="1620" width="110" height="30" as="geometry"/>
                </mxCell>
                <mxCell id="cTdeH06Kf2I8pl0_uj5c-261" value="" style="endArrow=classic;html=1;exitX=0.5;exitY=0;exitDx=0;exitDy=0;entryX=0;entryY=0.7;entryDx=0;entryDy=0;endSize=8;arcSize=0;rounded=0;" parent="1" source="cTdeH06Kf2I8pl0_uj5c-263" target="cTdeH06Kf2I8pl0_uj5c-257" edge="1">
                    <mxGeometry width="50" height="50" relative="1" as="geometry">
                        <mxPoint x="916" y="2083.33" as="sourcePoint"/>
                        <mxPoint x="1128.0000000000002" y="2083.33" as="targetPoint"/>
                    </mxGeometry>
                </mxCell>
                <mxCell id="cTdeH06Kf2I8pl0_uj5c-262" value="&lt;div&gt;moo:isDescribedBy&lt;/div&gt;" style="text;html=1;align=center;verticalAlign=middle;resizable=0;points=[];labelBackgroundColor=#ffffff;" parent="cTdeH06Kf2I8pl0_uj5c-261" vertex="1" connectable="0">
                    <mxGeometry x="-0.1269" relative="1" as="geometry">
                        <mxPoint x="4.17" as="offset"/>
                    </mxGeometry>
                </mxCell>
                <mxCell id="cTdeH06Kf2I8pl0_uj5c-263" value="moo:Entity" style="rounded=0;whiteSpace=wrap;html=1;snapToPoint=1;points=[[0.1,0],[0.2,0],[0.3,0],[0.4,0],[0.5,0],[0.6,0],[0.7,0],[0.8,0],[0.9,0],[0,0.1],[0,0.3],[0,0.5],[0,0.7],[0,0.9],[0.1,1],[0.2,1],[0.3,1],[0.4,1],[0.5,1],[0.6,1],[0.7,1],[0.8,1],[0.9,1],[1,0.1],[1,0.3],[1,0.5],[1,0.7],[1,0.9]];" parent="1" vertex="1">
                    <mxGeometry x="946" y="1765" width="100" height="30" as="geometry"/>
                </mxCell>
                <mxCell id="cTdeH06Kf2I8pl0_uj5c-264" value="" style="endArrow=classic;html=1;exitX=0;exitY=0.5;exitDx=0;exitDy=0;endSize=8;arcSize=0;entryX=1;entryY=0.5;entryDx=0;entryDy=0;rounded=0;" parent="1" source="cTdeH06Kf2I8pl0_uj5c-256" target="cTdeH06Kf2I8pl0_uj5c-263" edge="1">
                    <mxGeometry width="50" height="50" relative="1" as="geometry">
                        <mxPoint x="906" y="1993.33" as="sourcePoint"/>
                        <mxPoint x="1066" y="1795" as="targetPoint"/>
                    </mxGeometry>
                </mxCell>
                <mxCell id="cTdeH06Kf2I8pl0_uj5c-265" value="&lt;div&gt;moo:isAbout&lt;/div&gt;" style="text;html=1;align=center;verticalAlign=middle;resizable=0;points=[];labelBackgroundColor=#ffffff;" parent="cTdeH06Kf2I8pl0_uj5c-264" vertex="1" connectable="0">
                    <mxGeometry x="-0.1269" relative="1" as="geometry">
                        <mxPoint x="4.17" as="offset"/>
                    </mxGeometry>
                </mxCell>
                <mxCell id="cTdeH06Kf2I8pl0_uj5c-266" value="" style="endArrow=classic;html=1;exitX=0;exitY=0.1;exitDx=0;exitDy=0;entryX=0;entryY=0.3;entryDx=0;entryDy=0;endSize=8;arcSize=0;rounded=0;" parent="1" source="cTdeH06Kf2I8pl0_uj5c-263" target="cTdeH06Kf2I8pl0_uj5c-268" edge="1">
                    <mxGeometry width="50" height="50" relative="1" as="geometry">
                        <mxPoint x="1006" y="1775" as="sourcePoint"/>
                        <mxPoint x="1030" y="1610" as="targetPoint"/>
                    </mxGeometry>
                </mxCell>
                <mxCell id="cTdeH06Kf2I8pl0_uj5c-267" value="&lt;span style=&quot;background-color: rgb(248 , 249 , 250)&quot;&gt;moo:hasIdentifier&lt;/span&gt;" style="text;html=1;align=center;verticalAlign=middle;resizable=0;points=[];labelBackgroundColor=#ffffff;" parent="cTdeH06Kf2I8pl0_uj5c-266" vertex="1" connectable="0">
                    <mxGeometry x="-0.1269" relative="1" as="geometry">
                        <mxPoint x="4.17" as="offset"/>
                    </mxGeometry>
                </mxCell>
                <mxCell id="cTdeH06Kf2I8pl0_uj5c-268" value="moo:Identifier" style="rounded=0;whiteSpace=wrap;html=1;snapToPoint=1;points=[[0.1,0],[0.2,0],[0.3,0],[0.4,0],[0.5,0],[0.6,0],[0.7,0],[0.8,0],[0.9,0],[0,0.1],[0,0.3],[0,0.5],[0,0.7],[0,0.9],[0.1,1],[0.2,1],[0.3,1],[0.4,1],[0.5,1],[0.6,1],[0.7,1],[0.8,1],[0.9,1],[1,0.1],[1,0.3],[1,0.5],[1,0.7],[1,0.9]];" parent="1" vertex="1">
                    <mxGeometry x="1040" y="1550" width="136" height="30" as="geometry"/>
                </mxCell>
                <mxCell id="cTdeH06Kf2I8pl0_uj5c-269" value="" style="endArrow=classic;html=1;exitX=1;exitY=0.5;exitDx=0;exitDy=0;entryX=0;entryY=0.3;entryDx=0;entryDy=0;endSize=8;arcSize=0;rounded=0;" parent="1" source="cTdeH06Kf2I8pl0_uj5c-268" target="cTdeH06Kf2I8pl0_uj5c-260" edge="1">
                    <mxGeometry width="50" height="50" relative="1" as="geometry">
                        <mxPoint x="1210" y="1690" as="sourcePoint"/>
                        <mxPoint x="1301.964" y="1782.9900000000002" as="targetPoint"/>
                    </mxGeometry>
                </mxCell>
                <mxCell id="cTdeH06Kf2I8pl0_uj5c-270" value="moo:hasIdentifierType" style="text;html=1;align=center;verticalAlign=middle;resizable=0;points=[];labelBackgroundColor=#ffffff;" parent="cTdeH06Kf2I8pl0_uj5c-269" vertex="1" connectable="0">
                    <mxGeometry x="-0.1269" relative="1" as="geometry">
                        <mxPoint x="4.17" as="offset"/>
                    </mxGeometry>
                </mxCell>
                <mxCell id="cTdeH06Kf2I8pl0_uj5c-271" value="ns:TemporalExtent" style="rounded=0;whiteSpace=wrap;html=1;snapToPoint=1;points=[[0.1,0],[0.2,0],[0.3,0],[0.4,0],[0.5,0],[0.6,0],[0.7,0],[0.8,0],[0.9,0],[0,0.1],[0,0.3],[0,0.5],[0,0.7],[0,0.9],[0.1,1],[0.2,1],[0.3,1],[0.4,1],[0.5,1],[0.6,1],[0.7,1],[0.8,1],[0.9,1],[1,0.1],[1,0.3],[1,0.5],[1,0.7],[1,0.9]];" parent="1" vertex="1">
                    <mxGeometry x="710" y="1730" width="110" height="30" as="geometry"/>
                </mxCell>
                <mxCell id="cTdeH06Kf2I8pl0_uj5c-272" value="ns:ParticipantRole" style="rounded=0;whiteSpace=wrap;html=1;snapToPoint=1;points=[[0.1,0],[0.2,0],[0.3,0],[0.4,0],[0.5,0],[0.6,0],[0.7,0],[0.8,0],[0.9,0],[0,0.1],[0,0.3],[0,0.5],[0,0.7],[0,0.9],[0.1,1],[0.2,1],[0.3,1],[0.4,1],[0.5,1],[0.6,1],[0.7,1],[0.8,1],[0.9,1],[1,0.1],[1,0.3],[1,0.5],[1,0.7],[1,0.9]];" parent="1" vertex="1">
                    <mxGeometry x="460" y="1730" width="100" height="30" as="geometry"/>
                </mxCell>
                <mxCell id="cTdeH06Kf2I8pl0_uj5c-273" value="" style="endArrow=classic;html=1;endSize=8;arcSize=0;entryX=0.2;entryY=1;entryDx=0;entryDy=0;exitX=1;exitY=0.1;exitDx=0;exitDy=0;rounded=0;" parent="1" source="cTdeH06Kf2I8pl0_uj5c-275" target="cTdeH06Kf2I8pl0_uj5c-272" edge="1">
                    <mxGeometry width="50" height="50" relative="1" as="geometry">
                        <mxPoint x="630" y="1750" as="sourcePoint"/>
                        <mxPoint x="470" y="1980" as="targetPoint"/>
                    </mxGeometry>
                </mxCell>
                <mxCell id="cTdeH06Kf2I8pl0_uj5c-274" value="&lt;div&gt;&lt;/div&gt;ns:performsAgentRole" style="text;html=1;align=center;verticalAlign=middle;resizable=0;points=[];labelBackgroundColor=#ffffff;" parent="cTdeH06Kf2I8pl0_uj5c-273" vertex="1" connectable="0">
                    <mxGeometry x="-0.1269" relative="1" as="geometry">
                        <mxPoint as="offset"/>
                    </mxGeometry>
                </mxCell>
                <mxCell id="cTdeH06Kf2I8pl0_uj5c-275" value="ns:Agent" style="rounded=0;whiteSpace=wrap;html=1;snapToPoint=1;points=[[0.1,0],[0.2,0],[0.3,0],[0.4,0],[0.5,0],[0.6,0],[0.7,0],[0.8,0],[0.9,0],[0,0.1],[0,0.3],[0,0.5],[0,0.7],[0,0.9],[0.1,1],[0.2,1],[0.3,1],[0.4,1],[0.5,1],[0.6,1],[0.7,1],[0.8,1],[0.9,1],[1,0.1],[1,0.3],[1,0.5],[1,0.7],[1,0.9]];" parent="1" vertex="1">
                    <mxGeometry x="270" y="1790" width="100" height="30" as="geometry"/>
                </mxCell>
                <mxCell id="cTdeH06Kf2I8pl0_uj5c-276" value="" style="endArrow=classic;html=1;endSize=8;arcSize=0;exitX=1;exitY=0.5;exitDx=0;exitDy=0;entryX=0;entryY=0.5;entryDx=0;entryDy=0;rounded=0;" parent="1" source="cTdeH06Kf2I8pl0_uj5c-272" target="cTdeH06Kf2I8pl0_uj5c-271" edge="1">
                    <mxGeometry width="50" height="50" relative="1" as="geometry">
                        <mxPoint x="560" y="1695" as="sourcePoint"/>
                        <mxPoint x="790" y="1735" as="targetPoint"/>
                    </mxGeometry>
                </mxCell>
                <mxCell id="cTdeH06Kf2I8pl0_uj5c-277" value="&lt;div&gt;&lt;/div&gt;ns:hasTemporalExtent" style="text;html=1;align=center;verticalAlign=middle;resizable=0;points=[];labelBackgroundColor=#ffffff;" parent="cTdeH06Kf2I8pl0_uj5c-276" vertex="1" connectable="0">
                    <mxGeometry x="-0.1269" relative="1" as="geometry">
                        <mxPoint as="offset"/>
                    </mxGeometry>
                </mxCell>
                <mxCell id="cTdeH06Kf2I8pl0_uj5c-278" value="" style="endArrow=classic;html=1;endSize=8;arcSize=0;entryX=0.2;entryY=0;entryDx=0;entryDy=0;exitX=1;exitY=0.9;exitDx=0;exitDy=0;rounded=0;" parent="1" source="cTdeH06Kf2I8pl0_uj5c-280" target="cTdeH06Kf2I8pl0_uj5c-272" edge="1">
                    <mxGeometry width="50" height="50" relative="1" as="geometry">
                        <mxPoint x="630" y="1610" as="sourcePoint"/>
                        <mxPoint x="480" y="1620" as="targetPoint"/>
                        <Array as="points"/>
                    </mxGeometry>
                </mxCell>
                <mxCell id="cTdeH06Kf2I8pl0_uj5c-279" value="&lt;div&gt;&lt;/div&gt;ns:providesParticipantRole" style="text;html=1;align=center;verticalAlign=middle;resizable=0;points=[];labelBackgroundColor=#ffffff;" parent="cTdeH06Kf2I8pl0_uj5c-278" vertex="1" connectable="0">
                    <mxGeometry x="-0.1269" relative="1" as="geometry">
                        <mxPoint as="offset"/>
                    </mxGeometry>
                </mxCell>
                <mxCell id="cTdeH06Kf2I8pl0_uj5c-280" value="ns:Event" style="rounded=0;whiteSpace=wrap;html=1;snapToPoint=1;points=[[0.1,0],[0.2,0],[0.3,0],[0.4,0],[0.5,0],[0.6,0],[0.7,0],[0.8,0],[0.9,0],[0,0.1],[0,0.3],[0,0.5],[0,0.7],[0,0.9],[0.1,1],[0.2,1],[0.3,1],[0.4,1],[0.5,1],[0.6,1],[0.7,1],[0.8,1],[0.9,1],[1,0.1],[1,0.3],[1,0.5],[1,0.7],[1,0.9]];" parent="1" vertex="1">
                    <mxGeometry x="270" y="1650" width="100" height="30" as="geometry"/>
                </mxCell>
                <mxCell id="cTdeH06Kf2I8pl0_uj5c-281" value="ns:EntityWithProvenance" style="rounded=0;whiteSpace=wrap;html=1;snapToPoint=1;points=[[0.1,0],[0.2,0],[0.3,0],[0.4,0],[0.5,0],[0.6,0],[0.7,0],[0.8,0],[0.9,0],[0,0.1],[0,0.3],[0,0.5],[0,0.7],[0,0.9],[0.1,1],[0.2,1],[0.3,1],[0.4,1],[0.5,1],[0.6,1],[0.7,1],[0.8,1],[0.9,1],[1,0.1],[1,0.3],[1,0.5],[1,0.7],[1,0.9]];" parent="1" vertex="1">
                    <mxGeometry x="290" y="1240" width="140" height="30" as="geometry"/>
                </mxCell>
                <mxCell id="cTdeH06Kf2I8pl0_uj5c-282" value="" style="endArrow=classic;html=1;exitX=1;exitY=0.5;exitDx=0;exitDy=0;endSize=8;arcSize=0;edgeStyle=orthogonalEdgeStyle;curved=1;rounded=0;" parent="1" source="cTdeH06Kf2I8pl0_uj5c-281" edge="1">
                    <mxGeometry width="50" height="50" relative="1" as="geometry">
                        <mxPoint x="310" y="1358.33" as="sourcePoint"/>
                        <mxPoint x="410" y="1240" as="targetPoint"/>
                        <Array as="points">
                            <mxPoint x="430" y="1290"/>
                            <mxPoint x="490" y="1290"/>
                            <mxPoint x="490" y="1200"/>
                            <mxPoint x="410" y="1200"/>
                        </Array>
                    </mxGeometry>
                </mxCell>
                <mxCell id="cTdeH06Kf2I8pl0_uj5c-283" value="&lt;div&gt;ns:wasDerivedFrom&lt;/div&gt;" style="text;html=1;align=center;verticalAlign=middle;resizable=0;points=[];labelBackgroundColor=#ffffff;" parent="cTdeH06Kf2I8pl0_uj5c-282" vertex="1" connectable="0">
                    <mxGeometry x="-0.1269" relative="1" as="geometry">
                        <mxPoint x="4.17" as="offset"/>
                    </mxGeometry>
                </mxCell>
                <mxCell id="cTdeH06Kf2I8pl0_uj5c-284" value="ns:Agent" style="rounded=0;whiteSpace=wrap;html=1;snapToPoint=1;points=[[0.1,0],[0.2,0],[0.3,0],[0.4,0],[0.5,0],[0.6,0],[0.7,0],[0.8,0],[0.9,0],[0,0.1],[0,0.3],[0,0.5],[0,0.7],[0,0.9],[0.1,1],[0.2,1],[0.3,1],[0.4,1],[0.5,1],[0.6,1],[0.7,1],[0.8,1],[0.9,1],[1,0.1],[1,0.3],[1,0.5],[1,0.7],[1,0.9]];" parent="1" vertex="1">
                    <mxGeometry x="100" y="1360" width="100" height="30" as="geometry"/>
                </mxCell>
                <mxCell id="cTdeH06Kf2I8pl0_uj5c-285" value="" style="endArrow=classic;html=1;exitX=0;exitY=0.5;exitDx=0;exitDy=0;entryX=1;entryY=0.1;entryDx=0;entryDy=0;endSize=8;arcSize=0;curved=1;rounded=0;" parent="1" source="cTdeH06Kf2I8pl0_uj5c-281" target="cTdeH06Kf2I8pl0_uj5c-284" edge="1">
                    <mxGeometry width="50" height="50" relative="1" as="geometry">
                        <mxPoint x="370" y="1405" as="sourcePoint"/>
                        <mxPoint x="560" y="1570" as="targetPoint"/>
                        <Array as="points"/>
                    </mxGeometry>
                </mxCell>
                <mxCell id="cTdeH06Kf2I8pl0_uj5c-286" value="ns:attributedTo" style="text;html=1;align=center;verticalAlign=middle;resizable=0;points=[];labelBackgroundColor=#ffffff;" parent="cTdeH06Kf2I8pl0_uj5c-285" vertex="1" connectable="0">
                    <mxGeometry x="-0.1269" relative="1" as="geometry">
                        <mxPoint as="offset"/>
                    </mxGeometry>
                </mxCell>
                <mxCell id="cTdeH06Kf2I8pl0_uj5c-287" value="" style="endArrow=classic;html=1;exitX=0.3;exitY=1;exitDx=0;exitDy=0;endSize=8;arcSize=0;curved=1;entryX=0.3;entryY=0;entryDx=0;entryDy=0;rounded=0;" parent="1" source="cTdeH06Kf2I8pl0_uj5c-281" target="cTdeH06Kf2I8pl0_uj5c-289" edge="1">
                    <mxGeometry width="50" height="50" relative="1" as="geometry">
                        <mxPoint x="395" y="1485" as="sourcePoint"/>
                        <mxPoint x="500" y="1400" as="targetPoint"/>
                        <Array as="points">
                            <mxPoint x="300" y="1400"/>
                        </Array>
                    </mxGeometry>
                </mxCell>
                <mxCell id="cTdeH06Kf2I8pl0_uj5c-288" value="ns:generatedBy" style="text;html=1;align=center;verticalAlign=middle;resizable=0;points=[];labelBackgroundColor=#ffffff;" parent="cTdeH06Kf2I8pl0_uj5c-287" vertex="1" connectable="0">
                    <mxGeometry x="-0.1269" relative="1" as="geometry">
                        <mxPoint x="13" y="19" as="offset"/>
                    </mxGeometry>
                </mxCell>
                <mxCell id="cTdeH06Kf2I8pl0_uj5c-289" value="ns:ProvenanceActivity" style="rounded=0;whiteSpace=wrap;html=1;snapToPoint=1;points=[[0.1,0],[0.2,0],[0.3,0],[0.4,0],[0.5,0],[0.6,0],[0.7,0],[0.8,0],[0.9,0],[0,0.1],[0,0.3],[0,0.5],[0,0.7],[0,0.9],[0.1,1],[0.2,1],[0.3,1],[0.4,1],[0.5,1],[0.6,1],[0.7,1],[0.8,1],[0.9,1],[1,0.1],[1,0.3],[1,0.5],[1,0.7],[1,0.9]];" parent="1" vertex="1">
                    <mxGeometry x="285" y="1490" width="150" height="30" as="geometry"/>
                </mxCell>
                <mxCell id="cTdeH06Kf2I8pl0_uj5c-290" value="" style="endArrow=classic;html=1;exitX=0.6;exitY=0;exitDx=0;exitDy=0;endSize=8;entryX=0.6;entryY=1;entryDx=0;entryDy=0;arcSize=0;curved=1;rounded=0;" parent="1" source="cTdeH06Kf2I8pl0_uj5c-289" target="cTdeH06Kf2I8pl0_uj5c-281" edge="1">
                    <mxGeometry width="50" height="50" relative="1" as="geometry">
                        <mxPoint x="325" y="1510" as="sourcePoint"/>
                        <mxPoint x="314" y="1280" as="targetPoint"/>
                        <Array as="points">
                            <mxPoint x="410" y="1390"/>
                        </Array>
                    </mxGeometry>
                </mxCell>
                <mxCell id="cTdeH06Kf2I8pl0_uj5c-291" value="ns:used" style="text;html=1;align=center;verticalAlign=middle;resizable=0;points=[];labelBackgroundColor=#ffffff;" parent="cTdeH06Kf2I8pl0_uj5c-290" vertex="1" connectable="0">
                    <mxGeometry x="-0.1269" relative="1" as="geometry">
                        <mxPoint x="-17" y="-29" as="offset"/>
                    </mxGeometry>
                </mxCell>
                <mxCell id="cTdeH06Kf2I8pl0_uj5c-292" value="" style="endArrow=classic;html=1;exitX=0;exitY=0.5;exitDx=0;exitDy=0;endSize=8;entryX=1;entryY=0.9;entryDx=0;entryDy=0;arcSize=0;curved=1;rounded=0;" parent="1" source="cTdeH06Kf2I8pl0_uj5c-289" target="cTdeH06Kf2I8pl0_uj5c-284" edge="1">
                    <mxGeometry width="50" height="50" relative="1" as="geometry">
                        <mxPoint x="325" y="1510" as="sourcePoint"/>
                        <mxPoint x="314" y="1280" as="targetPoint"/>
                        <Array as="points"/>
                    </mxGeometry>
                </mxCell>
                <mxCell id="cTdeH06Kf2I8pl0_uj5c-293" value="ns:performedBy" style="text;html=1;align=center;verticalAlign=middle;resizable=0;points=[];labelBackgroundColor=#ffffff;" parent="cTdeH06Kf2I8pl0_uj5c-292" vertex="1" connectable="0">
                    <mxGeometry x="-0.1269" relative="1" as="geometry">
                        <mxPoint x="22" y="-8" as="offset"/>
                    </mxGeometry>
                </mxCell>
                <mxCell id="cTdeH06Kf2I8pl0_uj5c-294" value="ns:Context" style="rounded=0;whiteSpace=wrap;html=1;snapToPoint=1;points=[[0.1,0],[0.2,0],[0.3,0],[0.4,0],[0.5,0],[0.6,0],[0.7,0],[0.8,0],[0.9,0],[0,0.1],[0,0.3],[0,0.5],[0,0.7],[0,0.9],[0.1,1],[0.2,1],[0.3,1],[0.4,1],[0.5,1],[0.6,1],[0.7,1],[0.8,1],[0.9,1],[1,0.1],[1,0.3],[1,0.5],[1,0.7],[1,0.9]];" parent="1" vertex="1">
                    <mxGeometry x="750" y="1545" width="100" height="30" as="geometry"/>
                </mxCell>
                <mxCell id="cTdeH06Kf2I8pl0_uj5c-295" value="ns:ReifiedProperty" style="rounded=0;whiteSpace=wrap;html=1;snapToPoint=1;points=[[0.1,0],[0.2,0],[0.3,0],[0.4,0],[0.5,0],[0.6,0],[0.7,0],[0.8,0],[0.9,0],[0,0.1],[0,0.3],[0,0.5],[0,0.7],[0,0.9],[0.1,1],[0.2,1],[0.3,1],[0.4,1],[0.5,1],[0.6,1],[0.7,1],[0.8,1],[0.9,1],[1,0.1],[1,0.3],[1,0.5],[1,0.7],[1,0.9]];" parent="1" vertex="1">
                    <mxGeometry x="740" y="1420" width="120" height="30" as="geometry"/>
                </mxCell>
                <mxCell id="cTdeH06Kf2I8pl0_uj5c-296" value="owl:Thing" style="rounded=0;whiteSpace=wrap;html=1;snapToPoint=1;points=[[0.1,0],[0.2,0],[0.3,0],[0.4,0],[0.5,0],[0.6,0],[0.7,0],[0.8,0],[0.9,0],[0,0.1],[0,0.3],[0,0.5],[0,0.7],[0,0.9],[0.1,1],[0.2,1],[0.3,1],[0.4,1],[0.5,1],[0.6,1],[0.7,1],[0.8,1],[0.9,1],[1,0.1],[1,0.3],[1,0.5],[1,0.7],[1,0.9]];" parent="1" vertex="1">
                    <mxGeometry x="887" y="1220" width="100" height="30" as="geometry"/>
                </mxCell>
                <mxCell id="cTdeH06Kf2I8pl0_uj5c-297" value="owl:Thing" style="rounded=0;whiteSpace=wrap;html=1;snapToPoint=1;points=[[0.1,0],[0.2,0],[0.3,0],[0.4,0],[0.5,0],[0.6,0],[0.7,0],[0.8,0],[0.9,0],[0,0.1],[0,0.3],[0,0.5],[0,0.7],[0,0.9],[0.1,1],[0.2,1],[0.3,1],[0.4,1],[0.5,1],[0.6,1],[0.7,1],[0.8,1],[0.9,1],[1,0.1],[1,0.3],[1,0.5],[1,0.7],[1,0.9]];" parent="1" vertex="1">
                    <mxGeometry x="613" y="1220" width="100" height="30" as="geometry"/>
                </mxCell>
                <mxCell id="cTdeH06Kf2I8pl0_uj5c-298" value="" style="endArrow=classic;html=1;exitX=1;exitY=0.5;exitDx=0;exitDy=0;entryX=0;entryY=0.5;entryDx=0;entryDy=0;endSize=8;dashed=1;arcSize=0;rounded=0;" parent="1" source="cTdeH06Kf2I8pl0_uj5c-297" target="cTdeH06Kf2I8pl0_uj5c-296" edge="1">
                    <mxGeometry width="50" height="50" relative="1" as="geometry">
                        <mxPoint x="593" y="1338.33" as="sourcePoint"/>
                        <mxPoint x="805.0000000000002" y="1338.33" as="targetPoint"/>
                    </mxGeometry>
                </mxCell>
                <mxCell id="cTdeH06Kf2I8pl0_uj5c-299" value="&lt;div&gt;ns:propertyToBeReified&lt;/div&gt;" style="edgeLabel;html=1;align=center;verticalAlign=middle;resizable=0;points=[];" parent="cTdeH06Kf2I8pl0_uj5c-298" vertex="1" connectable="0">
                    <mxGeometry x="-0.1912" y="-1" relative="1" as="geometry">
                        <mxPoint as="offset"/>
                    </mxGeometry>
                </mxCell>
                <mxCell id="cTdeH06Kf2I8pl0_uj5c-300" value="" style="endArrow=classic;html=1;exitX=1;exitY=0.1;exitDx=0;exitDy=0;entryX=0.5;entryY=1;entryDx=0;entryDy=0;endSize=8;arcSize=0;rounded=0;" parent="1" source="cTdeH06Kf2I8pl0_uj5c-295" target="cTdeH06Kf2I8pl0_uj5c-296" edge="1">
                    <mxGeometry width="50" height="50" relative="1" as="geometry">
                        <mxPoint x="700" y="1340" as="sourcePoint"/>
                        <mxPoint x="874" y="1340" as="targetPoint"/>
                    </mxGeometry>
                </mxCell>
                <mxCell id="cTdeH06Kf2I8pl0_uj5c-301" value="&lt;div&gt;ns:reifiedProperty2&lt;/div&gt;" style="text;html=1;align=center;verticalAlign=middle;resizable=0;points=[];labelBackgroundColor=#ffffff;" parent="cTdeH06Kf2I8pl0_uj5c-300" vertex="1" connectable="0">
                    <mxGeometry x="-0.1269" relative="1" as="geometry">
                        <mxPoint x="4.17" as="offset"/>
                    </mxGeometry>
                </mxCell>
                <mxCell id="cTdeH06Kf2I8pl0_uj5c-302" value="" style="endArrow=classic;html=1;exitX=0.5;exitY=1;exitDx=0;exitDy=0;entryX=0;entryY=0.1;entryDx=0;entryDy=0;endSize=8;arcSize=0;rounded=0;" parent="1" source="cTdeH06Kf2I8pl0_uj5c-297" target="cTdeH06Kf2I8pl0_uj5c-295" edge="1">
                    <mxGeometry width="50" height="50" relative="1" as="geometry">
                        <mxPoint x="710" y="1350" as="sourcePoint"/>
                        <mxPoint x="884" y="1350" as="targetPoint"/>
                    </mxGeometry>
                </mxCell>
                <mxCell id="cTdeH06Kf2I8pl0_uj5c-303" value="&lt;div&gt;ns:reifiedProperty1&lt;/div&gt;" style="text;html=1;align=center;verticalAlign=middle;resizable=0;points=[];labelBackgroundColor=#ffffff;" parent="cTdeH06Kf2I8pl0_uj5c-302" vertex="1" connectable="0">
                    <mxGeometry x="-0.1269" relative="1" as="geometry">
                        <mxPoint x="4.17" as="offset"/>
                    </mxGeometry>
                </mxCell>
                <mxCell id="cTdeH06Kf2I8pl0_uj5c-304" value="" style="endArrow=classic;html=1;exitX=0.5;exitY=1;exitDx=0;exitDy=0;entryX=0.5;entryY=0;entryDx=0;entryDy=0;endSize=8;arcSize=0;rounded=0;" parent="1" source="cTdeH06Kf2I8pl0_uj5c-295" target="cTdeH06Kf2I8pl0_uj5c-294" edge="1">
                    <mxGeometry width="50" height="50" relative="1" as="geometry">
                        <mxPoint x="887" y="1450" as="sourcePoint"/>
                        <mxPoint x="964" y="1623" as="targetPoint"/>
                        <Array as="points"/>
                    </mxGeometry>
                </mxCell>
                <mxCell id="cTdeH06Kf2I8pl0_uj5c-305" value="&lt;div&gt;ns:hasContext&lt;/div&gt;" style="text;html=1;align=center;verticalAlign=middle;resizable=0;points=[];labelBackgroundColor=#ffffff;" parent="cTdeH06Kf2I8pl0_uj5c-304" vertex="1" connectable="0">
                    <mxGeometry x="-0.1269" relative="1" as="geometry">
                        <mxPoint x="4.17" as="offset"/>
                    </mxGeometry>
                </mxCell>
                <mxCell id="cTdeH06Kf2I8pl0_uj5c-306" value="" style="endArrow=block;html=1;fontColor=#000099;exitX=0.5;exitY=1;exitDx=0;exitDy=0;endFill=0;endSize=8;arcSize=0;entryX=0;entryY=0.1;entryDx=0;entryDy=0;rounded=0;" parent="1" source="cTdeH06Kf2I8pl0_uj5c-308" target="cTdeH06Kf2I8pl0_uj5c-307" edge="1">
                    <mxGeometry width="50" height="50" relative="1" as="geometry">
                        <mxPoint x="825" y="1240" as="sourcePoint"/>
                        <mxPoint x="1270" y="1400" as="targetPoint"/>
                    </mxGeometry>
                </mxCell>
                <mxCell id="cTdeH06Kf2I8pl0_uj5c-307" value="ns:ListItem" style="rounded=0;whiteSpace=wrap;html=1;snapToPoint=1;points=[[0.1,0],[0.2,0],[0.3,0],[0.4,0],[0.5,0],[0.6,0],[0.7,0],[0.8,0],[0.9,0],[0,0.1],[0,0.3],[0,0.5],[0,0.7],[0,0.9],[0.1,1],[0.2,1],[0.3,1],[0.4,1],[0.5,1],[0.6,1],[0.7,1],[0.8,1],[0.9,1],[1,0.1],[1,0.3],[1,0.5],[1,0.7],[1,0.9]];" parent="1" vertex="1">
                    <mxGeometry x="1210" y="1400" width="100" height="30" as="geometry"/>
                </mxCell>
                <mxCell id="cTdeH06Kf2I8pl0_uj5c-308" value="ns:FirstItem" style="rounded=0;whiteSpace=wrap;html=1;snapToPoint=1;points=[[0.1,0],[0.2,0],[0.3,0],[0.4,0],[0.5,0],[0.6,0],[0.7,0],[0.8,0],[0.9,0],[0,0.1],[0,0.3],[0,0.5],[0,0.7],[0,0.9],[0.1,1],[0.2,1],[0.3,1],[0.4,1],[0.5,1],[0.6,1],[0.7,1],[0.8,1],[0.9,1],[1,0.1],[1,0.3],[1,0.5],[1,0.7],[1,0.9]];" parent="1" vertex="1">
                    <mxGeometry x="1050" y="1300" width="100" height="30" as="geometry"/>
                </mxCell>
                <mxCell id="cTdeH06Kf2I8pl0_uj5c-309" value="" style="endArrow=block;html=1;fontColor=#000099;exitX=0.5;exitY=1;exitDx=0;exitDy=0;endFill=0;endSize=8;arcSize=0;entryX=0.5;entryY=0;entryDx=0;entryDy=0;rounded=0;" parent="1" source="cTdeH06Kf2I8pl0_uj5c-310" target="cTdeH06Kf2I8pl0_uj5c-307" edge="1">
                    <mxGeometry width="50" height="50" relative="1" as="geometry">
                        <mxPoint x="975" y="1237" as="sourcePoint"/>
                        <mxPoint x="1360" y="1400" as="targetPoint"/>
                    </mxGeometry>
                </mxCell>
                <mxCell id="cTdeH06Kf2I8pl0_uj5c-310" value="ns:FirstItem" style="rounded=0;whiteSpace=wrap;html=1;snapToPoint=1;points=[[0.1,0],[0.2,0],[0.3,0],[0.4,0],[0.5,0],[0.6,0],[0.7,0],[0.8,0],[0.9,0],[0,0.1],[0,0.3],[0,0.5],[0,0.7],[0,0.9],[0.1,1],[0.2,1],[0.3,1],[0.4,1],[0.5,1],[0.6,1],[0.7,1],[0.8,1],[0.9,1],[1,0.1],[1,0.3],[1,0.5],[1,0.7],[1,0.9]];" parent="1" vertex="1">
                    <mxGeometry x="1210" y="1300" width="100" height="30" as="geometry"/>
                </mxCell>
                <mxCell id="cTdeH06Kf2I8pl0_uj5c-311" value="" style="endArrow=classic;html=1;exitX=1;exitY=0.5;exitDx=0;exitDy=0;endSize=8;arcSize=0;edgeStyle=orthogonalEdgeStyle;curved=1;entryX=0.7;entryY=1;entryDx=0;entryDy=0;rounded=0;" parent="1" source="cTdeH06Kf2I8pl0_uj5c-307" target="cTdeH06Kf2I8pl0_uj5c-307" edge="1">
                    <mxGeometry width="50" height="50" relative="1" as="geometry">
                        <mxPoint x="1270" y="1545" as="sourcePoint"/>
                        <mxPoint x="1380" y="1530" as="targetPoint"/>
                        <Array as="points">
                            <mxPoint x="1330" y="1415"/>
                            <mxPoint x="1330" y="1460"/>
                            <mxPoint x="1280" y="1460"/>
                        </Array>
                    </mxGeometry>
                </mxCell>
                <mxCell id="cTdeH06Kf2I8pl0_uj5c-312" value="&lt;div&gt;ns:hasNext&lt;/div&gt;" style="text;html=1;align=center;verticalAlign=middle;resizable=0;points=[];labelBackgroundColor=#ffffff;" parent="cTdeH06Kf2I8pl0_uj5c-311" vertex="1" connectable="0">
                    <mxGeometry x="-0.1269" relative="1" as="geometry">
                        <mxPoint x="4.17" as="offset"/>
                    </mxGeometry>
                </mxCell>
                <mxCell id="cTdeH06Kf2I8pl0_uj5c-313" value="" style="endArrow=classic;html=1;exitX=1;exitY=0.3;exitDx=0;exitDy=0;endSize=8;arcSize=0;curved=1;edgeStyle=orthogonalEdgeStyle;entryX=0.5;entryY=1;entryDx=0;entryDy=0;rounded=0;" parent="1" source="cTdeH06Kf2I8pl0_uj5c-307" target="cTdeH06Kf2I8pl0_uj5c-307" edge="1">
                    <mxGeometry width="50" height="50" relative="1" as="geometry">
                        <mxPoint x="1070" y="1668.33" as="sourcePoint"/>
                        <mxPoint x="1380" y="1490" as="targetPoint"/>
                        <Array as="points">
                            <mxPoint x="1370" y="1409"/>
                            <mxPoint x="1370" y="1490"/>
                            <mxPoint x="1260" y="1490"/>
                        </Array>
                    </mxGeometry>
                </mxCell>
                <mxCell id="cTdeH06Kf2I8pl0_uj5c-314" value="&lt;div&gt;ns:hasSuccessor&lt;/div&gt;" style="text;html=1;align=center;verticalAlign=middle;resizable=0;points=[];labelBackgroundColor=#ffffff;" parent="cTdeH06Kf2I8pl0_uj5c-313" vertex="1" connectable="0">
                    <mxGeometry x="-0.1269" relative="1" as="geometry">
                        <mxPoint x="-6" as="offset"/>
                    </mxGeometry>
                </mxCell>
                <mxCell id="cTdeH06Kf2I8pl0_uj5c-315" value="owl:Thing" style="rounded=0;whiteSpace=wrap;html=1;snapToPoint=1;points=[[0.1,0],[0.2,0],[0.3,0],[0.4,0],[0.5,0],[0.6,0],[0.7,0],[0.8,0],[0.9,0],[0,0.1],[0,0.3],[0,0.5],[0,0.7],[0,0.9],[0.1,1],[0.2,1],[0.3,1],[0.4,1],[0.5,1],[0.6,1],[0.7,1],[0.8,1],[0.9,1],[1,0.1],[1,0.3],[1,0.5],[1,0.7],[1,0.9]];" parent="1" vertex="1">
                    <mxGeometry x="420" y="460" width="100" height="30" as="geometry"/>
                </mxCell>
                <mxCell id="cTdeH06Kf2I8pl0_uj5c-316" value="ns:&lt;span style=&quot;background-color: rgb(255 , 255 , 255)&quot;&gt;SpatiotemporalExtent&lt;/span&gt;" style="rounded=0;whiteSpace=wrap;html=1;snapToPoint=1;points=[[0.1,0],[0.2,0],[0.3,0],[0.4,0],[0.5,0],[0.6,0],[0.7,0],[0.8,0],[0.9,0],[0,0.1],[0,0.3],[0,0.5],[0,0.7],[0,0.9],[0.1,1],[0.2,1],[0.3,1],[0.4,1],[0.5,1],[0.6,1],[0.7,1],[0.8,1],[0.9,1],[1,0.1],[1,0.3],[1,0.5],[1,0.7],[1,0.9]];" parent="1" vertex="1">
                    <mxGeometry x="70" y="460" width="150" height="30" as="geometry"/>
                </mxCell>
                <mxCell id="cTdeH06Kf2I8pl0_uj5c-317" value="" style="endArrow=classic;html=1;exitX=0;exitY=0.5;exitDx=0;exitDy=0;endSize=8;arcSize=0;entryX=1;entryY=0.5;entryDx=0;entryDy=0;rounded=0;" parent="1" source="cTdeH06Kf2I8pl0_uj5c-315" target="cTdeH06Kf2I8pl0_uj5c-316" edge="1">
                    <mxGeometry width="50" height="50" relative="1" as="geometry">
                        <mxPoint x="30" y="788.3299999999999" as="sourcePoint"/>
                        <mxPoint x="310" y="670" as="targetPoint"/>
                    </mxGeometry>
                </mxCell>
                <mxCell id="cTdeH06Kf2I8pl0_uj5c-318" value="&lt;div&gt;ns:hasSpatiotemporalExtent&lt;/div&gt;" style="text;html=1;align=center;verticalAlign=middle;resizable=0;points=[];labelBackgroundColor=#ffffff;" parent="cTdeH06Kf2I8pl0_uj5c-317" vertex="1" connectable="0">
                    <mxGeometry x="-0.1269" relative="1" as="geometry">
                        <mxPoint x="-3" as="offset"/>
                    </mxGeometry>
                </mxCell>
                <mxCell id="cTdeH06Kf2I8pl0_uj5c-319" value="ns:&lt;span style=&quot;background-color: rgb(255 , 255 , 255)&quot;&gt;Trajectory&lt;/span&gt;" style="rounded=0;whiteSpace=wrap;html=1;snapToPoint=1;points=[[0.1,0],[0.2,0],[0.3,0],[0.4,0],[0.5,0],[0.6,0],[0.7,0],[0.8,0],[0.9,0],[0,0.1],[0,0.3],[0,0.5],[0,0.7],[0,0.9],[0.1,1],[0.2,1],[0.3,1],[0.4,1],[0.5,1],[0.6,1],[0.7,1],[0.8,1],[0.9,1],[1,0.1],[1,0.3],[1,0.5],[1,0.7],[1,0.9]];" parent="1" vertex="1">
                    <mxGeometry x="80" y="560" width="100" height="30" as="geometry"/>
                </mxCell>
                <mxCell id="cTdeH06Kf2I8pl0_uj5c-320" value="" style="endArrow=classic;html=1;exitX=0.5;exitY=1;exitDx=0;exitDy=0;endSize=8;arcSize=0;entryX=0.5;entryY=0;entryDx=0;entryDy=0;rounded=0;" parent="1" source="cTdeH06Kf2I8pl0_uj5c-316" target="cTdeH06Kf2I8pl0_uj5c-319" edge="1">
                    <mxGeometry width="50" height="50" relative="1" as="geometry">
                        <mxPoint x="410" y="575" as="sourcePoint"/>
                        <mxPoint x="300" y="770" as="targetPoint"/>
                    </mxGeometry>
                </mxCell>
                <mxCell id="cTdeH06Kf2I8pl0_uj5c-321" value="&lt;div&gt;ns:hasTrajectory&lt;/div&gt;" style="text;html=1;align=center;verticalAlign=middle;resizable=0;points=[];labelBackgroundColor=#ffffff;" parent="cTdeH06Kf2I8pl0_uj5c-320" vertex="1" connectable="0">
                    <mxGeometry x="-0.1269" relative="1" as="geometry">
                        <mxPoint x="-3" as="offset"/>
                    </mxGeometry>
                </mxCell>
                <mxCell id="cTdeH06Kf2I8pl0_uj5c-322" value="ns:&lt;span style=&quot;background-color: rgb(255 , 255 , 255)&quot;&gt;Segment&lt;/span&gt;" style="rounded=0;whiteSpace=wrap;html=1;snapToPoint=1;points=[[0.1,0],[0.2,0],[0.3,0],[0.4,0],[0.5,0],[0.6,0],[0.7,0],[0.8,0],[0.9,0],[0,0.1],[0,0.3],[0,0.5],[0,0.7],[0,0.9],[0.1,1],[0.2,1],[0.3,1],[0.4,1],[0.5,1],[0.6,1],[0.7,1],[0.8,1],[0.9,1],[1,0.1],[1,0.3],[1,0.5],[1,0.7],[1,0.9]];" parent="1" vertex="1">
                    <mxGeometry x="77.5" y="660" width="105" height="30" as="geometry"/>
                </mxCell>
                <mxCell id="cTdeH06Kf2I8pl0_uj5c-323" value="" style="endArrow=classic;html=1;endSize=8;arcSize=0;entryX=0.5;entryY=0;entryDx=0;entryDy=0;exitX=0.5;exitY=1;exitDx=0;exitDy=0;rounded=0;" parent="1" source="cTdeH06Kf2I8pl0_uj5c-319" target="cTdeH06Kf2I8pl0_uj5c-322" edge="1">
                    <mxGeometry width="50" height="50" relative="1" as="geometry">
                        <mxPoint x="125" y="590" as="sourcePoint"/>
                        <mxPoint x="290" y="870" as="targetPoint"/>
                    </mxGeometry>
                </mxCell>
                <mxCell id="cTdeH06Kf2I8pl0_uj5c-324" value="&lt;div&gt;ns:hasSegment&lt;/div&gt;" style="text;html=1;align=center;verticalAlign=middle;resizable=0;points=[];labelBackgroundColor=#ffffff;" parent="cTdeH06Kf2I8pl0_uj5c-323" vertex="1" connectable="0">
                    <mxGeometry x="-0.1269" relative="1" as="geometry">
                        <mxPoint x="-3" as="offset"/>
                    </mxGeometry>
                </mxCell>
                <mxCell id="cTdeH06Kf2I8pl0_uj5c-325" value="ns:&lt;span style=&quot;background-color: rgb(255 , 255 , 255)&quot;&gt;Fix&lt;/span&gt;" style="rounded=0;whiteSpace=wrap;html=1;snapToPoint=1;points=[[0.1,0],[0.2,0],[0.3,0],[0.4,0],[0.5,0],[0.6,0],[0.7,0],[0.8,0],[0.9,0],[0,0.1],[0,0.3],[0,0.5],[0,0.7],[0,0.9],[0.1,1],[0.2,1],[0.3,1],[0.4,1],[0.5,1],[0.6,1],[0.7,1],[0.8,1],[0.9,1],[1,0.1],[1,0.3],[1,0.5],[1,0.7],[1,0.9]];" parent="1" vertex="1">
                    <mxGeometry x="290" y="610" width="100" height="30" as="geometry"/>
                </mxCell>
                <mxCell id="cTdeH06Kf2I8pl0_uj5c-326" value="" style="endArrow=classic;html=1;exitX=1;exitY=0.5;exitDx=0;exitDy=0;endSize=8;arcSize=0;entryX=0;entryY=0.1;entryDx=0;entryDy=0;rounded=0;" parent="1" source="cTdeH06Kf2I8pl0_uj5c-319" target="cTdeH06Kf2I8pl0_uj5c-325" edge="1">
                    <mxGeometry width="50" height="50" relative="1" as="geometry">
                        <mxPoint x="210" y="560" as="sourcePoint"/>
                        <mxPoint x="490" y="805" as="targetPoint"/>
                    </mxGeometry>
                </mxCell>
                <mxCell id="cTdeH06Kf2I8pl0_uj5c-327" value="&lt;div&gt;ns:hasFix&lt;/div&gt;" style="text;html=1;align=center;verticalAlign=middle;resizable=0;points=[];labelBackgroundColor=#ffffff;" parent="cTdeH06Kf2I8pl0_uj5c-326" vertex="1" connectable="0">
                    <mxGeometry x="-0.1269" relative="1" as="geometry">
                        <mxPoint x="-3" as="offset"/>
                    </mxGeometry>
                </mxCell>
                <mxCell id="cTdeH06Kf2I8pl0_uj5c-328" value="" style="endArrow=classic;html=1;exitX=1;exitY=0.3;exitDx=0;exitDy=0;endSize=8;arcSize=0;entryX=0;entryY=0.5;entryDx=0;entryDy=0;edgeStyle=orthogonalEdgeStyle;curved=1;rounded=0;" parent="1" source="cTdeH06Kf2I8pl0_uj5c-322" target="cTdeH06Kf2I8pl0_uj5c-325" edge="1">
                    <mxGeometry width="50" height="50" relative="1" as="geometry">
                        <mxPoint x="190" y="585" as="sourcePoint"/>
                        <mxPoint x="300" y="623" as="targetPoint"/>
                        <Array as="points">
                            <mxPoint x="182" y="640"/>
                            <mxPoint x="290" y="640"/>
                        </Array>
                    </mxGeometry>
                </mxCell>
                <mxCell id="cTdeH06Kf2I8pl0_uj5c-329" value="&lt;div&gt;ns:startsFrom&lt;/div&gt;" style="text;html=1;align=center;verticalAlign=middle;resizable=0;points=[];labelBackgroundColor=#ffffff;" parent="cTdeH06Kf2I8pl0_uj5c-328" vertex="1" connectable="0">
                    <mxGeometry x="-0.1269" relative="1" as="geometry">
                        <mxPoint x="16" as="offset"/>
                    </mxGeometry>
                </mxCell>
                <mxCell id="cTdeH06Kf2I8pl0_uj5c-330" value="" style="endArrow=classic;html=1;exitX=1;exitY=0.7;exitDx=0;exitDy=0;endSize=8;arcSize=0;edgeStyle=orthogonalEdgeStyle;curved=1;entryX=0;entryY=0.5;entryDx=0;entryDy=0;rounded=0;" parent="1" source="cTdeH06Kf2I8pl0_uj5c-322" target="cTdeH06Kf2I8pl0_uj5c-325" edge="1">
                    <mxGeometry width="50" height="50" relative="1" as="geometry">
                        <mxPoint x="182.5" y="684" as="sourcePoint"/>
                        <mxPoint x="320" y="675" as="targetPoint"/>
                        <Array as="points">
                            <mxPoint x="182" y="684"/>
                            <mxPoint x="180" y="684"/>
                            <mxPoint x="180" y="675"/>
                            <mxPoint x="290" y="675"/>
                        </Array>
                    </mxGeometry>
                </mxCell>
                <mxCell id="cTdeH06Kf2I8pl0_uj5c-331" value="&lt;div&gt;ns:endsAt&lt;/div&gt;" style="text;html=1;align=center;verticalAlign=middle;resizable=0;points=[];labelBackgroundColor=#ffffff;" parent="cTdeH06Kf2I8pl0_uj5c-330" vertex="1" connectable="0">
                    <mxGeometry x="-0.1269" relative="1" as="geometry">
                        <mxPoint x="16" as="offset"/>
                    </mxGeometry>
                </mxCell>
                <mxCell id="cTdeH06Kf2I8pl0_uj5c-332" value="" style="endArrow=classic;html=1;exitX=0.1;exitY=0;exitDx=0;exitDy=0;endSize=8;arcSize=0;entryX=0.9;entryY=0;entryDx=0;entryDy=0;edgeStyle=orthogonalEdgeStyle;curved=1;rounded=0;" parent="1" source="cTdeH06Kf2I8pl0_uj5c-325" target="cTdeH06Kf2I8pl0_uj5c-325" edge="1">
                    <mxGeometry width="50" height="50" relative="1" as="geometry">
                        <mxPoint x="300.02" y="610" as="sourcePoint"/>
                        <mxPoint x="407.52" y="566" as="targetPoint"/>
                        <Array as="points">
                            <mxPoint x="300" y="581"/>
                            <mxPoint x="380" y="581"/>
                        </Array>
                    </mxGeometry>
                </mxCell>
                <mxCell id="cTdeH06Kf2I8pl0_uj5c-333" value="&lt;div&gt;ns:nextFix&lt;/div&gt;" style="text;html=1;align=center;verticalAlign=middle;resizable=0;points=[];labelBackgroundColor=#ffffff;" parent="cTdeH06Kf2I8pl0_uj5c-332" vertex="1" connectable="0">
                    <mxGeometry x="-0.1269" relative="1" as="geometry">
                        <mxPoint x="16" as="offset"/>
                    </mxGeometry>
                </mxCell>
                <mxCell id="cTdeH06Kf2I8pl0_uj5c-334" value="" style="endArrow=block;html=1;fontColor=#000099;exitX=0.5;exitY=0;exitDx=0;exitDy=0;endFill=0;entryX=0.3;entryY=1;entryDx=0;entryDy=0;endSize=8;arcSize=0;curved=1;rounded=0;" parent="1" source="cTdeH06Kf2I8pl0_uj5c-335" target="cTdeH06Kf2I8pl0_uj5c-325" edge="1">
                    <mxGeometry width="50" height="50" relative="1" as="geometry">
                        <mxPoint x="65" y="780" as="sourcePoint"/>
                        <mxPoint x="330" y="770" as="targetPoint"/>
                    </mxGeometry>
                </mxCell>
                <mxCell id="cTdeH06Kf2I8pl0_uj5c-335" value="ns:StartingFix" style="rounded=0;whiteSpace=wrap;html=1;snapToPoint=1;points=[[0.1,0],[0.2,0],[0.3,0],[0.4,0],[0.5,0],[0.6,0],[0.7,0],[0.8,0],[0.9,0],[0,0.1],[0,0.3],[0,0.5],[0,0.7],[0,0.9],[0.1,1],[0.2,1],[0.3,1],[0.4,1],[0.5,1],[0.6,1],[0.7,1],[0.8,1],[0.9,1],[1,0.1],[1,0.3],[1,0.5],[1,0.7],[1,0.9]];" parent="1" vertex="1">
                    <mxGeometry x="210" y="750" width="100" height="30" as="geometry"/>
                </mxCell>
                <mxCell id="cTdeH06Kf2I8pl0_uj5c-336" value="" style="endArrow=block;html=1;fontColor=#000099;exitX=0.5;exitY=0;exitDx=0;exitDy=0;endFill=0;entryX=0.7;entryY=1;entryDx=0;entryDy=0;endSize=8;arcSize=0;curved=1;rounded=0;" parent="1" source="cTdeH06Kf2I8pl0_uj5c-337" target="cTdeH06Kf2I8pl0_uj5c-325" edge="1">
                    <mxGeometry width="50" height="50" relative="1" as="geometry">
                        <mxPoint x="195" y="770" as="sourcePoint"/>
                        <mxPoint x="470" y="760" as="targetPoint"/>
                    </mxGeometry>
                </mxCell>
                <mxCell id="cTdeH06Kf2I8pl0_uj5c-337" value="ns:EndingFix" style="rounded=0;whiteSpace=wrap;html=1;snapToPoint=1;points=[[0.1,0],[0.2,0],[0.3,0],[0.4,0],[0.5,0],[0.6,0],[0.7,0],[0.8,0],[0.9,0],[0,0.1],[0,0.3],[0,0.5],[0,0.7],[0,0.9],[0.1,1],[0.2,1],[0.3,1],[0.4,1],[0.5,1],[0.6,1],[0.7,1],[0.8,1],[0.9,1],[1,0.1],[1,0.3],[1,0.5],[1,0.7],[1,0.9]];" parent="1" vertex="1">
                    <mxGeometry x="370" y="750" width="100" height="30" as="geometry"/>
                </mxCell>
                <mxCell id="cTdeH06Kf2I8pl0_uj5c-338" value="ns:&lt;span style=&quot;background-color: rgb(255 , 255 , 255)&quot;&gt;Time&lt;/span&gt;" style="rounded=0;whiteSpace=wrap;html=1;snapToPoint=1;points=[[0.1,0],[0.2,0],[0.3,0],[0.4,0],[0.5,0],[0.6,0],[0.7,0],[0.8,0],[0.9,0],[0,0.1],[0,0.3],[0,0.5],[0,0.7],[0,0.9],[0.1,1],[0.2,1],[0.3,1],[0.4,1],[0.5,1],[0.6,1],[0.7,1],[0.8,1],[0.9,1],[1,0.1],[1,0.3],[1,0.5],[1,0.7],[1,0.9]];" parent="1" vertex="1">
                    <mxGeometry x="470" y="650" width="100" height="30" as="geometry"/>
                </mxCell>
                <mxCell id="cTdeH06Kf2I8pl0_uj5c-339" value="" style="endArrow=classic;html=1;exitX=1;exitY=0.9;exitDx=0;exitDy=0;endSize=8;arcSize=0;entryX=0;entryY=0.5;entryDx=0;entryDy=0;rounded=0;" parent="1" source="cTdeH06Kf2I8pl0_uj5c-325" target="cTdeH06Kf2I8pl0_uj5c-338" edge="1">
                    <mxGeometry width="50" height="50" relative="1" as="geometry">
                        <mxPoint x="400" y="642.5" as="sourcePoint"/>
                        <mxPoint x="710" y="872.5" as="targetPoint"/>
                    </mxGeometry>
                </mxCell>
                <mxCell id="cTdeH06Kf2I8pl0_uj5c-340" value="&lt;div&gt;ns:atTime&lt;/div&gt;" style="text;html=1;align=center;verticalAlign=middle;resizable=0;points=[];labelBackgroundColor=#ffffff;" parent="cTdeH06Kf2I8pl0_uj5c-339" vertex="1" connectable="0">
                    <mxGeometry x="-0.1269" relative="1" as="geometry">
                        <mxPoint x="-3" as="offset"/>
                    </mxGeometry>
                </mxCell>
                <mxCell id="cTdeH06Kf2I8pl0_uj5c-341" value="ns:&lt;span style=&quot;background-color: rgb(255 , 255 , 255)&quot;&gt;Place&lt;/span&gt;" style="rounded=0;whiteSpace=wrap;html=1;snapToPoint=1;points=[[0.1,0],[0.2,0],[0.3,0],[0.4,0],[0.5,0],[0.6,0],[0.7,0],[0.8,0],[0.9,0],[0,0.1],[0,0.3],[0,0.5],[0,0.7],[0,0.9],[0.1,1],[0.2,1],[0.3,1],[0.4,1],[0.5,1],[0.6,1],[0.7,1],[0.8,1],[0.9,1],[1,0.1],[1,0.3],[1,0.5],[1,0.7],[1,0.9]];" parent="1" vertex="1">
                    <mxGeometry x="470" y="570" width="100" height="30" as="geometry"/>
                </mxCell>
                <mxCell id="cTdeH06Kf2I8pl0_uj5c-342" value="" style="endArrow=classic;html=1;exitX=1;exitY=0.1;exitDx=0;exitDy=0;endSize=8;arcSize=0;entryX=0;entryY=0.5;entryDx=0;entryDy=0;rounded=0;" parent="1" source="cTdeH06Kf2I8pl0_uj5c-325" target="cTdeH06Kf2I8pl0_uj5c-341" edge="1">
                    <mxGeometry width="50" height="50" relative="1" as="geometry">
                        <mxPoint x="385" y="545" as="sourcePoint"/>
                        <mxPoint x="695" y="775" as="targetPoint"/>
                    </mxGeometry>
                </mxCell>
                <mxCell id="cTdeH06Kf2I8pl0_uj5c-343" value="&lt;div&gt;ns:atPlace&lt;/div&gt;" style="text;html=1;align=center;verticalAlign=middle;resizable=0;points=[];labelBackgroundColor=#ffffff;" parent="cTdeH06Kf2I8pl0_uj5c-342" vertex="1" connectable="0">
                    <mxGeometry x="-0.1269" relative="1" as="geometry">
                        <mxPoint x="-3" as="offset"/>
                    </mxGeometry>
                </mxCell>
                <mxCell id="cTdeH06Kf2I8pl0_uj5c-344" value="(some) ns:hasValue: xsd:&lt;i&gt;InsertDatatype&lt;/i&gt;" style="rounded=0;whiteSpace=wrap;html=1;snapToPoint=1;points=[[0.1,0],[0.2,0],[0.3,0],[0.4,0],[0.5,0],[0.6,0],[0.7,0],[0.8,0],[0.9,0],[0,0.1],[0,0.3],[0,0.5],[0,0.7],[0,0.9],[0.1,1],[0.2,1],[0.3,1],[0.4,1],[0.5,1],[0.6,1],[0.7,1],[0.8,1],[0.9,1],[1,0.1],[1,0.3],[1,0.5],[1,0.7],[1,0.9]];dashed=1;" parent="1" vertex="1">
                    <mxGeometry x="1135" y="1220" width="170" height="30" as="geometry"/>
                </mxCell>
                <mxCell id="cTdeH06Kf2I8pl0_uj5c-345" value="ns:Stub" style="rounded=0;whiteSpace=wrap;html=1;snapToPoint=1;points=[[0.1,0],[0.2,0],[0.3,0],[0.4,0],[0.5,0],[0.6,0],[0.7,0],[0.8,0],[0.9,0],[0,0.1],[0,0.3],[0,0.5],[0,0.7],[0,0.9],[0.1,1],[0.2,1],[0.3,1],[0.4,1],[0.5,1],[0.6,1],[0.7,1],[0.8,1],[0.9,1],[1,0.1],[1,0.3],[1,0.5],[1,0.7],[1,0.9]];" parent="1" vertex="1">
                    <mxGeometry x="1135" y="1190" width="170" height="30" as="geometry"/>
                </mxCell>
                <mxCell id="cTdeH06Kf2I8pl0_uj5c-346" value="ns:ComplexTemporalExtent" style="rounded=0;whiteSpace=wrap;html=1;snapToPoint=1;points=[[0.1,0],[0.2,0],[0.3,0],[0.4,0],[0.5,0],[0.6,0],[0.7,0],[0.8,0],[0.9,0],[0,0.1],[0,0.3],[0,0.5],[0,0.7],[0,0.9],[0.1,1],[0.2,1],[0.3,1],[0.4,1],[0.5,1],[0.6,1],[0.7,1],[0.8,1],[0.9,1],[1,0.1],[1,0.3],[1,0.5],[1,0.7],[1,0.9]];" parent="1" vertex="1">
                    <mxGeometry x="1340" y="1090" width="190" height="30" as="geometry"/>
                </mxCell>
                <mxCell id="cTdeH06Kf2I8pl0_uj5c-347" value="ns:TemporalExtent" style="rounded=0;whiteSpace=wrap;html=1;snapToPoint=1;points=[[0.1,0],[0.2,0],[0.3,0],[0.4,0],[0.5,0],[0.6,0],[0.7,0],[0.8,0],[0.9,0],[0,0.1],[0,0.3],[0,0.5],[0,0.7],[0,0.9],[0.1,1],[0.2,1],[0.3,1],[0.4,1],[0.5,1],[0.6,1],[0.7,1],[0.8,1],[0.9,1],[1,0.1],[1,0.3],[1,0.5],[1,0.7],[1,0.9]];" parent="1" vertex="1">
                    <mxGeometry x="1375" y="1000" width="120" height="30" as="geometry"/>
                </mxCell>
                <mxCell id="cTdeH06Kf2I8pl0_uj5c-348" value="" style="endArrow=classic;html=1;exitX=0.5;exitY=1;exitDx=0;exitDy=0;entryX=0.5;entryY=0;entryDx=0;entryDy=0;endSize=8;arcSize=0;rounded=0;" parent="1" source="cTdeH06Kf2I8pl0_uj5c-347" target="cTdeH06Kf2I8pl0_uj5c-346" edge="1">
                    <mxGeometry width="50" height="50" relative="1" as="geometry">
                        <mxPoint x="1285" y="1018.3299999999999" as="sourcePoint"/>
                        <mxPoint x="1497.0000000000002" y="1018.3299999999999" as="targetPoint"/>
                    </mxGeometry>
                </mxCell>
                <mxCell id="cTdeH06Kf2I8pl0_uj5c-349" value="&lt;div&gt;ns:contains&lt;/div&gt;" style="text;html=1;align=center;verticalAlign=middle;resizable=0;points=[];labelBackgroundColor=#ffffff;" parent="cTdeH06Kf2I8pl0_uj5c-348" vertex="1" connectable="0">
                    <mxGeometry x="-0.1269" relative="1" as="geometry">
                        <mxPoint as="offset"/>
                    </mxGeometry>
                </mxCell>
                <mxCell id="cTdeH06Kf2I8pl0_uj5c-350" value="" style="endArrow=block;html=1;fontColor=#000099;exitX=0.5;exitY=1;exitDx=0;exitDy=0;endFill=0;entryX=1;entryY=0.1;entryDx=0;entryDy=0;endSize=8;arcSize=0;rounded=0;" parent="1" source="cTdeH06Kf2I8pl0_uj5c-354" target="cTdeH06Kf2I8pl0_uj5c-346" edge="1">
                    <mxGeometry width="50" height="50" relative="1" as="geometry">
                        <mxPoint x="1380" y="990" as="sourcePoint"/>
                        <mxPoint x="1537.9999999999893" y="990" as="targetPoint"/>
                    </mxGeometry>
                </mxCell>
                <mxCell id="cTdeH06Kf2I8pl0_uj5c-351" value="ns:PointInTime" style="rounded=0;whiteSpace=wrap;html=1;snapToPoint=1;points=[[0.1,0],[0.2,0],[0.3,0],[0.4,0],[0.5,0],[0.6,0],[0.7,0],[0.8,0],[0.9,0],[0,0.1],[0,0.3],[0,0.5],[0,0.7],[0,0.9],[0.1,1],[0.2,1],[0.3,1],[0.4,1],[0.5,1],[0.6,1],[0.7,1],[0.8,1],[0.9,1],[1,0.1],[1,0.3],[1,0.5],[1,0.7],[1,0.9]];" parent="1" vertex="1">
                    <mxGeometry x="1575" y="1170" width="100" height="30" as="geometry"/>
                </mxCell>
                <mxCell id="cTdeH06Kf2I8pl0_uj5c-352" style="edgeStyle=orthogonalEdgeStyle;curved=1;html=1;exitX=0.6;exitY=1;exitDx=0;exitDy=0;entryX=0.6;entryY=0;entryDx=0;entryDy=0;rounded=0;" parent="1" source="cTdeH06Kf2I8pl0_uj5c-354" target="cTdeH06Kf2I8pl0_uj5c-351" edge="1">
                    <mxGeometry relative="1" as="geometry">
                        <Array as="points">
                            <mxPoint x="1655" y="1020"/>
                            <mxPoint x="1655" y="1170"/>
                        </Array>
                    </mxGeometry>
                </mxCell>
                <mxCell id="cTdeH06Kf2I8pl0_uj5c-353" value="ns:startsFrom" style="edgeLabel;html=1;align=center;verticalAlign=middle;resizable=0;points=[];" parent="cTdeH06Kf2I8pl0_uj5c-352" vertex="1" connectable="0">
                    <mxGeometry x="-0.0211" y="2" relative="1" as="geometry">
                        <mxPoint as="offset"/>
                    </mxGeometry>
                </mxCell>
                <mxCell id="cTdeH06Kf2I8pl0_uj5c-354" value="ns:TimeInterval" style="rounded=0;whiteSpace=wrap;html=1;snapToPoint=1;points=[[0.1,0],[0.2,0],[0.3,0],[0.4,0],[0.5,0],[0.6,0],[0.7,0],[0.8,0],[0.9,0],[0,0.1],[0,0.3],[0,0.5],[0,0.7],[0,0.9],[0.1,1],[0.2,1],[0.3,1],[0.4,1],[0.5,1],[0.6,1],[0.7,1],[0.8,1],[0.9,1],[1,0.1],[1,0.3],[1,0.5],[1,0.7],[1,0.9]];" parent="1" vertex="1">
                    <mxGeometry x="1575" y="990" width="100" height="30" as="geometry"/>
                </mxCell>
                <mxCell id="cTdeH06Kf2I8pl0_uj5c-355" value="" style="endArrow=block;html=1;fontColor=#000099;exitX=0.5;exitY=0;exitDx=0;exitDy=0;endFill=0;entryX=1;entryY=0.9;entryDx=0;entryDy=0;endSize=8;arcSize=0;rounded=0;" parent="1" source="cTdeH06Kf2I8pl0_uj5c-351" target="cTdeH06Kf2I8pl0_uj5c-346" edge="1">
                    <mxGeometry width="50" height="50" relative="1" as="geometry">
                        <mxPoint x="1635" y="1030" as="sourcePoint"/>
                        <mxPoint x="1470" y="1093" as="targetPoint"/>
                    </mxGeometry>
                </mxCell>
                <mxCell id="cTdeH06Kf2I8pl0_uj5c-356" value="ns:ReferenceSystem" style="rounded=0;whiteSpace=wrap;html=1;snapToPoint=1;points=[[0.1,0],[0.2,0],[0.3,0],[0.4,0],[0.5,0],[0.6,0],[0.7,0],[0.8,0],[0.9,0],[0,0.1],[0,0.3],[0,0.5],[0,0.7],[0,0.9],[0.1,1],[0.2,1],[0.3,1],[0.4,1],[0.5,1],[0.6,1],[0.7,1],[0.8,1],[0.9,1],[1,0.1],[1,0.3],[1,0.5],[1,0.7],[1,0.9]];" parent="1" vertex="1">
                    <mxGeometry x="1635" y="1290" width="140" height="30" as="geometry"/>
                </mxCell>
                <mxCell id="cTdeH06Kf2I8pl0_uj5c-357" value="ns:Value" style="rounded=0;whiteSpace=wrap;html=1;snapToPoint=1;points=[[0.1,0],[0.2,0],[0.3,0],[0.4,0],[0.5,0],[0.6,0],[0.7,0],[0.8,0],[0.9,0],[0,0.1],[0,0.3],[0,0.5],[0,0.7],[0,0.9],[0.1,1],[0.2,1],[0.3,1],[0.4,1],[0.5,1],[0.6,1],[0.7,1],[0.8,1],[0.9,1],[1,0.1],[1,0.3],[1,0.5],[1,0.7],[1,0.9]];" parent="1" vertex="1">
                    <mxGeometry x="1495" y="1290" width="100" height="30" as="geometry"/>
                </mxCell>
                <mxCell id="cTdeH06Kf2I8pl0_uj5c-358" value="" style="endArrow=classic;html=1;exitX=0.5;exitY=1;exitDx=0;exitDy=0;endSize=8;arcSize=0;entryX=0.5;entryY=0;entryDx=0;entryDy=0;rounded=0;" parent="1" source="cTdeH06Kf2I8pl0_uj5c-351" target="cTdeH06Kf2I8pl0_uj5c-357" edge="1">
                    <mxGeometry width="50" height="50" relative="1" as="geometry">
                        <mxPoint x="1405" y="1378.33" as="sourcePoint"/>
                        <mxPoint x="1500" y="1240" as="targetPoint"/>
                    </mxGeometry>
                </mxCell>
                <mxCell id="cTdeH06Kf2I8pl0_uj5c-359" value="&lt;div&gt;ns:hasValue&lt;/div&gt;" style="text;html=1;align=center;verticalAlign=middle;resizable=0;points=[];labelBackgroundColor=#ffffff;" parent="cTdeH06Kf2I8pl0_uj5c-358" vertex="1" connectable="0">
                    <mxGeometry x="-0.1269" relative="1" as="geometry">
                        <mxPoint x="4.17" as="offset"/>
                    </mxGeometry>
                </mxCell>
                <mxCell id="cTdeH06Kf2I8pl0_uj5c-360" value="" style="endArrow=classic;html=1;exitX=0.5;exitY=1;exitDx=0;exitDy=0;entryX=0.5;entryY=0;entryDx=0;entryDy=0;endSize=8;arcSize=0;rounded=0;" parent="1" source="cTdeH06Kf2I8pl0_uj5c-351" target="cTdeH06Kf2I8pl0_uj5c-356" edge="1">
                    <mxGeometry width="50" height="50" relative="1" as="geometry">
                        <mxPoint x="1535" y="1285" as="sourcePoint"/>
                        <mxPoint x="1709" y="1285" as="targetPoint"/>
                    </mxGeometry>
                </mxCell>
                <mxCell id="cTdeH06Kf2I8pl0_uj5c-361" value="&lt;div&gt;ns:hasReferenceSystem&lt;/div&gt;" style="text;html=1;align=center;verticalAlign=middle;resizable=0;points=[];labelBackgroundColor=#ffffff;" parent="cTdeH06Kf2I8pl0_uj5c-360" vertex="1" connectable="0">
                    <mxGeometry x="-0.1269" relative="1" as="geometry">
                        <mxPoint x="4.17" as="offset"/>
                    </mxGeometry>
                </mxCell>
                <mxCell id="cTdeH06Kf2I8pl0_uj5c-362" value="" style="endArrow=classic;html=1;endSize=8;arcSize=0;edgeStyle=orthogonalEdgeStyle;curved=1;exitX=0.5;exitY=1;exitDx=0;exitDy=0;entryX=0.6;entryY=0;entryDx=0;entryDy=0;rounded=0;" parent="1" source="cTdeH06Kf2I8pl0_uj5c-354" target="cTdeH06Kf2I8pl0_uj5c-351" edge="1">
                    <mxGeometry width="50" height="50" relative="1" as="geometry">
                        <mxPoint x="1625" y="1020" as="sourcePoint"/>
                        <mxPoint x="1625" y="1170" as="targetPoint"/>
                        <Array as="points">
                            <mxPoint x="1605" y="1020"/>
                            <mxPoint x="1605" y="1170"/>
                        </Array>
                    </mxGeometry>
                </mxCell>
                <mxCell id="cTdeH06Kf2I8pl0_uj5c-363" value="&lt;div&gt;ns:endsAt&lt;/div&gt;" style="text;html=1;align=center;verticalAlign=middle;resizable=0;points=[];labelBackgroundColor=#ffffff;" parent="cTdeH06Kf2I8pl0_uj5c-362" vertex="1" connectable="0">
                    <mxGeometry x="-0.1269" relative="1" as="geometry">
                        <mxPoint x="4" y="29" as="offset"/>
                    </mxGeometry>
                </mxCell>
                <mxCell id="cTdeH06Kf2I8pl0_uj5c-364" value="ns:&lt;span style=&quot;background-color: rgb(255 , 255 , 255)&quot;&gt;Trajectory&lt;/span&gt;" style="rounded=0;whiteSpace=wrap;html=1;snapToPoint=1;points=[[0.1,0],[0.2,0],[0.3,0],[0.4,0],[0.5,0],[0.6,0],[0.7,0],[0.8,0],[0.9,0],[0,0.1],[0,0.3],[0,0.5],[0,0.7],[0,0.9],[0.1,1],[0.2,1],[0.3,1],[0.4,1],[0.5,1],[0.6,1],[0.7,1],[0.8,1],[0.9,1],[1,0.1],[1,0.3],[1,0.5],[1,0.7],[1,0.9]];" parent="1" vertex="1">
                    <mxGeometry x="1431.25" y="1410" width="100" height="30" as="geometry"/>
                </mxCell>
                <mxCell id="cTdeH06Kf2I8pl0_uj5c-365" value="ns:&lt;span style=&quot;background-color: rgb(255 , 255 , 255)&quot;&gt;Segment&lt;/span&gt;" style="rounded=0;whiteSpace=wrap;html=1;snapToPoint=1;points=[[0.1,0],[0.2,0],[0.3,0],[0.4,0],[0.5,0],[0.6,0],[0.7,0],[0.8,0],[0.9,0],[0,0.1],[0,0.3],[0,0.5],[0,0.7],[0,0.9],[0.1,1],[0.2,1],[0.3,1],[0.4,1],[0.5,1],[0.6,1],[0.7,1],[0.8,1],[0.9,1],[1,0.1],[1,0.3],[1,0.5],[1,0.7],[1,0.9]];" parent="1" vertex="1">
                    <mxGeometry x="1428.75" y="1510" width="105" height="30" as="geometry"/>
                </mxCell>
                <mxCell id="cTdeH06Kf2I8pl0_uj5c-366" value="" style="endArrow=classic;html=1;endSize=8;arcSize=0;entryX=0.5;entryY=0;entryDx=0;entryDy=0;exitX=0.5;exitY=1;exitDx=0;exitDy=0;rounded=0;" parent="1" source="cTdeH06Kf2I8pl0_uj5c-364" target="cTdeH06Kf2I8pl0_uj5c-365" edge="1">
                    <mxGeometry width="50" height="50" relative="1" as="geometry">
                        <mxPoint x="1476.25" y="1440" as="sourcePoint"/>
                        <mxPoint x="1641.25" y="1720" as="targetPoint"/>
                    </mxGeometry>
                </mxCell>
                <mxCell id="cTdeH06Kf2I8pl0_uj5c-367" value="&lt;div&gt;ns:hasSegment&lt;/div&gt;" style="text;html=1;align=center;verticalAlign=middle;resizable=0;points=[];labelBackgroundColor=#ffffff;" parent="cTdeH06Kf2I8pl0_uj5c-366" vertex="1" connectable="0">
                    <mxGeometry x="-0.1269" relative="1" as="geometry">
                        <mxPoint x="-3" as="offset"/>
                    </mxGeometry>
                </mxCell>
                <mxCell id="cTdeH06Kf2I8pl0_uj5c-368" value="ns:&lt;span style=&quot;background-color: rgb(255 , 255 , 255)&quot;&gt;Fix&lt;/span&gt;" style="rounded=0;whiteSpace=wrap;html=1;snapToPoint=1;points=[[0.1,0],[0.2,0],[0.3,0],[0.4,0],[0.5,0],[0.6,0],[0.7,0],[0.8,0],[0.9,0],[0,0.1],[0,0.3],[0,0.5],[0,0.7],[0,0.9],[0.1,1],[0.2,1],[0.3,1],[0.4,1],[0.5,1],[0.6,1],[0.7,1],[0.8,1],[0.9,1],[1,0.1],[1,0.3],[1,0.5],[1,0.7],[1,0.9]];" parent="1" vertex="1">
                    <mxGeometry x="1641.25" y="1460" width="100" height="30" as="geometry"/>
                </mxCell>
                <mxCell id="cTdeH06Kf2I8pl0_uj5c-369" value="" style="endArrow=classic;html=1;exitX=1;exitY=0.5;exitDx=0;exitDy=0;endSize=8;arcSize=0;entryX=0;entryY=0.1;entryDx=0;entryDy=0;rounded=0;" parent="1" source="cTdeH06Kf2I8pl0_uj5c-364" target="cTdeH06Kf2I8pl0_uj5c-368" edge="1">
                    <mxGeometry width="50" height="50" relative="1" as="geometry">
                        <mxPoint x="1561.25" y="1410" as="sourcePoint"/>
                        <mxPoint x="1841.25" y="1655" as="targetPoint"/>
                    </mxGeometry>
                </mxCell>
                <mxCell id="cTdeH06Kf2I8pl0_uj5c-370" value="&lt;div&gt;ns:hasFix&lt;/div&gt;" style="text;html=1;align=center;verticalAlign=middle;resizable=0;points=[];labelBackgroundColor=#ffffff;" parent="cTdeH06Kf2I8pl0_uj5c-369" vertex="1" connectable="0">
                    <mxGeometry x="-0.1269" relative="1" as="geometry">
                        <mxPoint x="-3" as="offset"/>
                    </mxGeometry>
                </mxCell>
                <mxCell id="cTdeH06Kf2I8pl0_uj5c-371" value="" style="endArrow=classic;html=1;exitX=1;exitY=0.3;exitDx=0;exitDy=0;endSize=8;arcSize=0;entryX=0;entryY=0.5;entryDx=0;entryDy=0;edgeStyle=orthogonalEdgeStyle;curved=1;rounded=0;" parent="1" source="cTdeH06Kf2I8pl0_uj5c-365" target="cTdeH06Kf2I8pl0_uj5c-368" edge="1">
                    <mxGeometry width="50" height="50" relative="1" as="geometry">
                        <mxPoint x="1541.25" y="1435" as="sourcePoint"/>
                        <mxPoint x="1651.25" y="1473" as="targetPoint"/>
                        <Array as="points">
                            <mxPoint x="1533.25" y="1490"/>
                            <mxPoint x="1641.25" y="1490"/>
                        </Array>
                    </mxGeometry>
                </mxCell>
                <mxCell id="cTdeH06Kf2I8pl0_uj5c-372" value="&lt;div&gt;ns:startsFrom&lt;/div&gt;" style="text;html=1;align=center;verticalAlign=middle;resizable=0;points=[];labelBackgroundColor=#ffffff;" parent="cTdeH06Kf2I8pl0_uj5c-371" vertex="1" connectable="0">
                    <mxGeometry x="-0.1269" relative="1" as="geometry">
                        <mxPoint x="16" as="offset"/>
                    </mxGeometry>
                </mxCell>
                <mxCell id="cTdeH06Kf2I8pl0_uj5c-373" value="" style="endArrow=classic;html=1;exitX=1;exitY=0.7;exitDx=0;exitDy=0;endSize=8;arcSize=0;edgeStyle=orthogonalEdgeStyle;curved=1;entryX=0;entryY=0.5;entryDx=0;entryDy=0;rounded=0;" parent="1" source="cTdeH06Kf2I8pl0_uj5c-365" target="cTdeH06Kf2I8pl0_uj5c-368" edge="1">
                    <mxGeometry width="50" height="50" relative="1" as="geometry">
                        <mxPoint x="1533.75" y="1534" as="sourcePoint"/>
                        <mxPoint x="1671.25" y="1525" as="targetPoint"/>
                        <Array as="points">
                            <mxPoint x="1533.25" y="1534"/>
                            <mxPoint x="1531.25" y="1534"/>
                            <mxPoint x="1531.25" y="1525"/>
                            <mxPoint x="1641.25" y="1525"/>
                        </Array>
                    </mxGeometry>
                </mxCell>
                <mxCell id="cTdeH06Kf2I8pl0_uj5c-374" value="&lt;div&gt;ns:endsAt&lt;/div&gt;" style="text;html=1;align=center;verticalAlign=middle;resizable=0;points=[];labelBackgroundColor=#ffffff;" parent="cTdeH06Kf2I8pl0_uj5c-373" vertex="1" connectable="0">
                    <mxGeometry x="-0.1269" relative="1" as="geometry">
                        <mxPoint x="16" as="offset"/>
                    </mxGeometry>
                </mxCell>
                <mxCell id="cTdeH06Kf2I8pl0_uj5c-375" value="" style="endArrow=classic;html=1;exitX=0.1;exitY=0;exitDx=0;exitDy=0;endSize=8;arcSize=0;entryX=0.9;entryY=0;entryDx=0;entryDy=0;edgeStyle=orthogonalEdgeStyle;curved=1;rounded=0;" parent="1" source="cTdeH06Kf2I8pl0_uj5c-368" target="cTdeH06Kf2I8pl0_uj5c-368" edge="1">
                    <mxGeometry width="50" height="50" relative="1" as="geometry">
                        <mxPoint x="1651.27" y="1460" as="sourcePoint"/>
                        <mxPoint x="1758.77" y="1416" as="targetPoint"/>
                        <Array as="points">
                            <mxPoint x="1651.25" y="1431"/>
                            <mxPoint x="1731.25" y="1431"/>
                        </Array>
                    </mxGeometry>
                </mxCell>
                <mxCell id="cTdeH06Kf2I8pl0_uj5c-376" value="&lt;div&gt;ns:nextFix&lt;/div&gt;" style="text;html=1;align=center;verticalAlign=middle;resizable=0;points=[];labelBackgroundColor=#ffffff;" parent="cTdeH06Kf2I8pl0_uj5c-375" vertex="1" connectable="0">
                    <mxGeometry x="-0.1269" relative="1" as="geometry">
                        <mxPoint x="16" as="offset"/>
                    </mxGeometry>
                </mxCell>
                <mxCell id="cTdeH06Kf2I8pl0_uj5c-377" value="" style="endArrow=block;html=1;fontColor=#000099;exitX=0.5;exitY=0;exitDx=0;exitDy=0;endFill=0;entryX=0.3;entryY=1;entryDx=0;entryDy=0;endSize=8;arcSize=0;curved=1;rounded=0;" parent="1" source="cTdeH06Kf2I8pl0_uj5c-378" target="cTdeH06Kf2I8pl0_uj5c-368" edge="1">
                    <mxGeometry width="50" height="50" relative="1" as="geometry">
                        <mxPoint x="1416.25" y="1630" as="sourcePoint"/>
                        <mxPoint x="1681.25" y="1620" as="targetPoint"/>
                    </mxGeometry>
                </mxCell>
                <mxCell id="cTdeH06Kf2I8pl0_uj5c-378" value="ns:StartingFix" style="rounded=0;whiteSpace=wrap;html=1;snapToPoint=1;points=[[0.1,0],[0.2,0],[0.3,0],[0.4,0],[0.5,0],[0.6,0],[0.7,0],[0.8,0],[0.9,0],[0,0.1],[0,0.3],[0,0.5],[0,0.7],[0,0.9],[0.1,1],[0.2,1],[0.3,1],[0.4,1],[0.5,1],[0.6,1],[0.7,1],[0.8,1],[0.9,1],[1,0.1],[1,0.3],[1,0.5],[1,0.7],[1,0.9]];" parent="1" vertex="1">
                    <mxGeometry x="1581.25" y="1560" width="100" height="30" as="geometry"/>
                </mxCell>
                <mxCell id="cTdeH06Kf2I8pl0_uj5c-379" value="" style="endArrow=block;html=1;fontColor=#000099;exitX=0.5;exitY=0;exitDx=0;exitDy=0;endFill=0;entryX=0.7;entryY=1;entryDx=0;entryDy=0;endSize=8;arcSize=0;curved=1;rounded=0;" parent="1" source="cTdeH06Kf2I8pl0_uj5c-380" target="cTdeH06Kf2I8pl0_uj5c-368" edge="1">
                    <mxGeometry width="50" height="50" relative="1" as="geometry">
                        <mxPoint x="1546.25" y="1620" as="sourcePoint"/>
                        <mxPoint x="1821.25" y="1610" as="targetPoint"/>
                    </mxGeometry>
                </mxCell>
                <mxCell id="cTdeH06Kf2I8pl0_uj5c-380" value="ns:EndingFix" style="rounded=0;whiteSpace=wrap;html=1;snapToPoint=1;points=[[0.1,0],[0.2,0],[0.3,0],[0.4,0],[0.5,0],[0.6,0],[0.7,0],[0.8,0],[0.9,0],[0,0.1],[0,0.3],[0,0.5],[0,0.7],[0,0.9],[0.1,1],[0.2,1],[0.3,1],[0.4,1],[0.5,1],[0.6,1],[0.7,1],[0.8,1],[0.9,1],[1,0.1],[1,0.3],[1,0.5],[1,0.7],[1,0.9]];" parent="1" vertex="1">
                    <mxGeometry x="1711.25" y="1560" width="100" height="30" as="geometry"/>
                </mxCell>
                <mxCell id="cTdeH06Kf2I8pl0_uj5c-381" value="" style="endArrow=block;html=1;fontColor=#000099;endFill=0;entryX=0;entryY=0.1;entryDx=0;entryDy=0;endSize=8;arcSize=0;exitX=0.5;exitY=1;exitDx=0;exitDy=0;rounded=0;" parent="1" source="cTdeH06Kf2I8pl0_uj5c-382" target="cTdeH06Kf2I8pl0_uj5c-396" edge="1">
                    <mxGeometry width="50" height="50" relative="1" as="geometry">
                        <mxPoint x="1945" y="890" as="sourcePoint"/>
                        <mxPoint x="1925" y="963" as="targetPoint"/>
                    </mxGeometry>
                </mxCell>
                <mxCell id="cTdeH06Kf2I8pl0_uj5c-382" value="ns:LeafNode" style="rounded=0;whiteSpace=wrap;html=1;snapToPoint=1;points=[[0.1,0],[0.2,0],[0.3,0],[0.4,0],[0.5,0],[0.6,0],[0.7,0],[0.8,0],[0.9,0],[0,0.1],[0,0.3],[0,0.5],[0,0.7],[0,0.9],[0.1,1],[0.2,1],[0.3,1],[0.4,1],[0.5,1],[0.6,1],[0.7,1],[0.8,1],[0.9,1],[1,0.1],[1,0.3],[1,0.5],[1,0.7],[1,0.9]];" parent="1" vertex="1">
                    <mxGeometry x="1775" y="870" width="100" height="30" as="geometry"/>
                </mxCell>
                <mxCell id="cTdeH06Kf2I8pl0_uj5c-383" value="" style="endArrow=block;html=1;fontColor=#000099;exitX=0.5;exitY=1;exitDx=0;exitDy=0;endFill=0;entryX=0.1;entryY=0;entryDx=0;entryDy=0;endSize=8;arcSize=0;rounded=0;" parent="1" source="cTdeH06Kf2I8pl0_uj5c-384" target="cTdeH06Kf2I8pl0_uj5c-396" edge="1">
                    <mxGeometry width="50" height="50" relative="1" as="geometry">
                        <mxPoint x="1930" y="900" as="sourcePoint"/>
                        <mxPoint x="1942.9000000000008" y="959.9999999999999" as="targetPoint"/>
                    </mxGeometry>
                </mxCell>
                <mxCell id="cTdeH06Kf2I8pl0_uj5c-384" value="ns:RootNode" style="rounded=0;whiteSpace=wrap;html=1;snapToPoint=1;points=[[0.1,0],[0.2,0],[0.3,0],[0.4,0],[0.5,0],[0.6,0],[0.7,0],[0.8,0],[0.9,0],[0,0.1],[0,0.3],[0,0.5],[0,0.7],[0,0.9],[0.1,1],[0.2,1],[0.3,1],[0.4,1],[0.5,1],[0.6,1],[0.7,1],[0.8,1],[0.9,1],[1,0.1],[1,0.3],[1,0.5],[1,0.7],[1,0.9]];" parent="1" vertex="1">
                    <mxGeometry x="1895" y="840" width="100" height="30" as="geometry"/>
                </mxCell>
                <mxCell id="cTdeH06Kf2I8pl0_uj5c-385" style="edgeStyle=orthogonalEdgeStyle;curved=1;html=1;exitX=0.8;exitY=0;exitDx=0;exitDy=0;entryX=1;entryY=0.3;entryDx=0;entryDy=0;rounded=0;" parent="1" source="cTdeH06Kf2I8pl0_uj5c-396" target="cTdeH06Kf2I8pl0_uj5c-396" edge="1">
                    <mxGeometry relative="1" as="geometry">
                        <mxPoint x="2104" y="969" as="targetPoint"/>
                        <mxPoint x="2068.2" y="959.9999999999999" as="sourcePoint"/>
                        <Array as="points">
                            <mxPoint x="2068" y="920"/>
                            <mxPoint x="2165" y="920"/>
                            <mxPoint x="2165" y="969"/>
                        </Array>
                    </mxGeometry>
                </mxCell>
                <mxCell id="cTdeH06Kf2I8pl0_uj5c-386" value="ns:hasChild" style="edgeLabel;html=1;align=center;verticalAlign=middle;resizable=0;points=[];" parent="cTdeH06Kf2I8pl0_uj5c-385" vertex="1" connectable="0">
                    <mxGeometry x="0.3233" y="-1" relative="1" as="geometry">
                        <mxPoint as="offset"/>
                    </mxGeometry>
                </mxCell>
                <mxCell id="cTdeH06Kf2I8pl0_uj5c-387" style="edgeStyle=orthogonalEdgeStyle;curved=1;html=1;exitX=0.7;exitY=0;exitDx=0;exitDy=0;entryX=1;entryY=0.3;entryDx=0;entryDy=0;rounded=0;" parent="1" source="cTdeH06Kf2I8pl0_uj5c-396" target="cTdeH06Kf2I8pl0_uj5c-396" edge="1">
                    <mxGeometry relative="1" as="geometry">
                        <mxPoint x="2104" y="969" as="targetPoint"/>
                        <mxPoint x="2050.2999999999997" y="959.9999999999999" as="sourcePoint"/>
                        <Array as="points">
                            <mxPoint x="2050" y="900"/>
                            <mxPoint x="2185" y="900"/>
                            <mxPoint x="2185" y="980"/>
                            <mxPoint x="2104" y="980"/>
                        </Array>
                    </mxGeometry>
                </mxCell>
                <mxCell id="cTdeH06Kf2I8pl0_uj5c-388" value="ns:hasDescendant" style="edgeLabel;html=1;align=center;verticalAlign=middle;resizable=0;points=[];" parent="cTdeH06Kf2I8pl0_uj5c-387" vertex="1" connectable="0">
                    <mxGeometry x="0.1792" y="-7" relative="1" as="geometry">
                        <mxPoint as="offset"/>
                    </mxGeometry>
                </mxCell>
                <mxCell id="cTdeH06Kf2I8pl0_uj5c-389" style="edgeStyle=orthogonalEdgeStyle;curved=1;html=1;exitX=0.6;exitY=0;exitDx=0;exitDy=0;entryX=1;entryY=0.5;entryDx=0;entryDy=0;rounded=0;" parent="1" source="cTdeH06Kf2I8pl0_uj5c-396" target="cTdeH06Kf2I8pl0_uj5c-396" edge="1">
                    <mxGeometry relative="1" as="geometry">
                        <mxPoint x="2104" y="975" as="targetPoint"/>
                        <mxPoint x="2032.3999999999999" y="959.9999999999999" as="sourcePoint"/>
                        <Array as="points">
                            <mxPoint x="2032" y="880"/>
                            <mxPoint x="2205" y="880"/>
                            <mxPoint x="2205" y="990"/>
                            <mxPoint x="2104" y="990"/>
                        </Array>
                    </mxGeometry>
                </mxCell>
                <mxCell id="cTdeH06Kf2I8pl0_uj5c-390" value="ns:hasParent" style="edgeLabel;html=1;align=center;verticalAlign=middle;resizable=0;points=[];" parent="cTdeH06Kf2I8pl0_uj5c-389" vertex="1" connectable="0">
                    <mxGeometry x="-0.0196" y="-17" relative="1" as="geometry">
                        <mxPoint y="1" as="offset"/>
                    </mxGeometry>
                </mxCell>
                <mxCell id="cTdeH06Kf2I8pl0_uj5c-391" style="edgeStyle=orthogonalEdgeStyle;curved=1;html=1;exitX=0.5;exitY=0;exitDx=0;exitDy=0;entryX=1;entryY=0.7;entryDx=0;entryDy=0;rounded=0;" parent="1" source="cTdeH06Kf2I8pl0_uj5c-396" target="cTdeH06Kf2I8pl0_uj5c-396" edge="1">
                    <mxGeometry relative="1" as="geometry">
                        <mxPoint x="2095" y="990" as="targetPoint"/>
                        <mxPoint x="2014.5" y="959.9999999999999" as="sourcePoint"/>
                        <Array as="points">
                            <mxPoint x="2015" y="850"/>
                            <mxPoint x="2225" y="850"/>
                            <mxPoint x="2225" y="1010"/>
                            <mxPoint x="2104" y="1010"/>
                        </Array>
                    </mxGeometry>
                </mxCell>
                <mxCell id="cTdeH06Kf2I8pl0_uj5c-392" value="ns:hasAncestor" style="edgeLabel;html=1;align=center;verticalAlign=middle;resizable=0;points=[];" parent="cTdeH06Kf2I8pl0_uj5c-391" vertex="1" connectable="0">
                    <mxGeometry x="0.0912" y="-20" relative="1" as="geometry">
                        <mxPoint as="offset"/>
                    </mxGeometry>
                </mxCell>
                <mxCell id="cTdeH06Kf2I8pl0_uj5c-393" style="edgeStyle=orthogonalEdgeStyle;curved=1;html=1;exitX=0.4;exitY=0;exitDx=0;exitDy=0;entryX=1;entryY=0.9;entryDx=0;entryDy=0;rounded=0;" parent="1" source="cTdeH06Kf2I8pl0_uj5c-396" target="cTdeH06Kf2I8pl0_uj5c-396" edge="1">
                    <mxGeometry relative="1" as="geometry">
                        <mxPoint x="2104" y="987" as="targetPoint"/>
                        <mxPoint x="1996.6000000000001" y="959.9999999999999" as="sourcePoint"/>
                        <Array as="points">
                            <mxPoint x="1997" y="830"/>
                            <mxPoint x="2245" y="830"/>
                            <mxPoint x="2245" y="1030"/>
                            <mxPoint x="2104" y="1030"/>
                        </Array>
                    </mxGeometry>
                </mxCell>
                <mxCell id="cTdeH06Kf2I8pl0_uj5c-394" value="ns:hasSibling" style="edgeLabel;html=1;align=center;verticalAlign=middle;resizable=0;points=[];" parent="cTdeH06Kf2I8pl0_uj5c-393" vertex="1" connectable="0">
                    <mxGeometry x="-0.1044" y="-19" relative="1" as="geometry">
                        <mxPoint y="1" as="offset"/>
                    </mxGeometry>
                </mxCell>
                <mxCell id="cTdeH06Kf2I8pl0_uj5c-395" value="ns:hasOutDegree:positiveInteger" style="rounded=0;whiteSpace=wrap;html=1;snapToPoint=1;points=[[0.1,0],[0.2,0],[0.3,0],[0.4,0],[0.5,0],[0.6,0],[0.7,0],[0.8,0],[0.9,0],[0,0.1],[0,0.3],[0,0.5],[0,0.7],[0,0.9],[0.1,1],[0.2,1],[0.3,1],[0.4,1],[0.5,1],[0.6,1],[0.7,1],[0.8,1],[0.9,1],[1,0.1],[1,0.3],[1,0.5],[1,0.7],[1,0.9]];" parent="1" vertex="1">
                    <mxGeometry x="1905" y="990" width="199" height="30" as="geometry"/>
                </mxCell>
                <mxCell id="cTdeH06Kf2I8pl0_uj5c-396" value="ns:TreeNode" style="rounded=0;whiteSpace=wrap;html=1;snapToPoint=1;points=[[0.1,0],[0.2,0],[0.3,0],[0.4,0],[0.5,0],[0.6,0],[0.7,0],[0.8,0],[0.9,0],[0,0.1],[0,0.3],[0,0.5],[0,0.7],[0,0.9],[0.1,1],[0.2,1],[0.3,1],[0.4,1],[0.5,1],[0.6,1],[0.7,1],[0.8,1],[0.9,1],[1,0.1],[1,0.3],[1,0.5],[1,0.7],[1,0.9]];" parent="1" vertex="1">
                    <mxGeometry x="1905" y="960" width="199" height="30" as="geometry"/>
                </mxCell>
                <mxCell id="FahL4Kak68dEMQJMIKo--18" value="ns:Quantity" style="rounded=0;whiteSpace=wrap;html=1;snapToPoint=1;points=[[0.1,0],[0.2,0],[0.3,0],[0.4,0],[0.5,0],[0.6,0],[0.7,0],[0.8,0],[0.9,0],[0,0.1],[0,0.3],[0,0.5],[0,0.7],[0,0.9],[0.1,1],[0.2,1],[0.3,1],[0.4,1],[0.5,1],[0.6,1],[0.7,1],[0.8,1],[0.9,1],[1,0.1],[1,0.3],[1,0.5],[1,0.7],[1,0.9]];" parent="1" vertex="1">
                    <mxGeometry x="630" y="480" width="100" height="30" as="geometry"/>
                </mxCell>
                <mxCell id="FahL4Kak68dEMQJMIKo--19" value="" style="endArrow=classic;html=1;exitX=0.5;exitY=1;exitDx=0;exitDy=0;entryX=0.5;entryY=0;entryDx=0;entryDy=0;endSize=8;arcSize=0;" parent="1" source="FahL4Kak68dEMQJMIKo--18" target="FahL4Kak68dEMQJMIKo--28" edge="1">
                    <mxGeometry width="50" height="50" relative="1" as="geometry">
                        <mxPoint x="584.75" y="598.3299999999999" as="sourcePoint"/>
                        <mxPoint x="654.75" y="630" as="targetPoint"/>
                    </mxGeometry>
                </mxCell>
                <mxCell id="FahL4Kak68dEMQJMIKo--20" value="&lt;div&gt;ns:hasQuantityValue&lt;/div&gt;" style="text;html=1;align=center;verticalAlign=middle;resizable=0;points=[];labelBackgroundColor=#ffffff;" parent="FahL4Kak68dEMQJMIKo--19" vertex="1" connectable="0">
                    <mxGeometry x="-0.1269" relative="1" as="geometry">
                        <mxPoint x="4.17" as="offset"/>
                    </mxGeometry>
                </mxCell>
                <mxCell id="FahL4Kak68dEMQJMIKo--21" value="" style="endArrow=classic;html=1;exitX=1;exitY=0.5;exitDx=0;exitDy=0;entryX=0;entryY=0.5;entryDx=0;entryDy=0;endSize=8;arcSize=0;" parent="1" source="FahL4Kak68dEMQJMIKo--18" target="FahL4Kak68dEMQJMIKo--25" edge="1">
                    <mxGeometry width="50" height="50" relative="1" as="geometry">
                        <mxPoint x="774.75" y="494.5" as="sourcePoint"/>
                        <mxPoint x="948.75" y="494.5" as="targetPoint"/>
                    </mxGeometry>
                </mxCell>
                <mxCell id="FahL4Kak68dEMQJMIKo--22" value="&lt;div&gt;ns:hasQuantityKind&lt;/div&gt;" style="text;html=1;align=center;verticalAlign=middle;resizable=0;points=[];labelBackgroundColor=#ffffff;" parent="FahL4Kak68dEMQJMIKo--21" vertex="1" connectable="0">
                    <mxGeometry x="-0.1269" relative="1" as="geometry">
                        <mxPoint x="4.17" as="offset"/>
                    </mxGeometry>
                </mxCell>
                <mxCell id="FahL4Kak68dEMQJMIKo--23" value="" style="endArrow=classic;html=1;exitX=1;exitY=0.5;exitDx=0;exitDy=0;endSize=8;arcSize=0;entryX=0;entryY=0.5;entryDx=0;entryDy=0;" parent="1" source="FahL4Kak68dEMQJMIKo--28" target="FahL4Kak68dEMQJMIKo--26" edge="1">
                    <mxGeometry width="50" height="50" relative="1" as="geometry">
                        <mxPoint x="704.75" y="645" as="sourcePoint"/>
                        <mxPoint x="944.75" y="580" as="targetPoint"/>
                    </mxGeometry>
                </mxCell>
                <mxCell id="FahL4Kak68dEMQJMIKo--24" value="&lt;div&gt;hasUnit&lt;/div&gt;" style="text;html=1;align=center;verticalAlign=middle;resizable=0;points=[];labelBackgroundColor=#ffffff;" parent="FahL4Kak68dEMQJMIKo--23" vertex="1" connectable="0">
                    <mxGeometry x="-0.1269" relative="1" as="geometry">
                        <mxPoint x="4.17" as="offset"/>
                    </mxGeometry>
                </mxCell>
                <mxCell id="FahL4Kak68dEMQJMIKo--25" value="ns:QuantityKind" style="rounded=0;whiteSpace=wrap;html=1;snapToPoint=1;points=[[0.1,0],[0.2,0],[0.3,0],[0.4,0],[0.5,0],[0.6,0],[0.7,0],[0.8,0],[0.9,0],[0,0.1],[0,0.3],[0,0.5],[0,0.7],[0,0.9],[0.1,1],[0.2,1],[0.3,1],[0.4,1],[0.5,1],[0.6,1],[0.7,1],[0.8,1],[0.9,1],[1,0.1],[1,0.3],[1,0.5],[1,0.7],[1,0.9]];" parent="1" vertex="1">
                    <mxGeometry x="930" y="490.0000000000002" width="120" height="30" as="geometry"/>
                </mxCell>
                <mxCell id="FahL4Kak68dEMQJMIKo--26" value="ns:Unit" style="rounded=0;whiteSpace=wrap;html=1;snapToPoint=1;points=[[0.1,0],[0.2,0],[0.3,0],[0.4,0],[0.5,0],[0.6,0],[0.7,0],[0.8,0],[0.9,0],[0,0.1],[0,0.3],[0,0.5],[0,0.7],[0,0.9],[0.1,1],[0.2,1],[0.3,1],[0.4,1],[0.5,1],[0.6,1],[0.7,1],[0.8,1],[0.9,1],[1,0.1],[1,0.3],[1,0.5],[1,0.7],[1,0.9]];" parent="1" vertex="1">
                    <mxGeometry x="920" y="570.0000000000002" width="120" height="30" as="geometry"/>
                </mxCell>
                <mxCell id="FahL4Kak68dEMQJMIKo--27" value="ns:hasNumericValue: xsd:double" style="rounded=0;whiteSpace=wrap;html=1;snapToPoint=1;points=[[0.1,0],[0.2,0],[0.3,0],[0.4,0],[0.5,0],[0.6,0],[0.7,0],[0.8,0],[0.9,0],[0,0.1],[0,0.3],[0,0.5],[0,0.7],[0,0.9],[0.1,1],[0.2,1],[0.3,1],[0.4,1],[0.5,1],[0.6,1],[0.7,1],[0.8,1],[0.9,1],[1,0.1],[1,0.3],[1,0.5],[1,0.7],[1,0.9]];" parent="1" vertex="1">
                    <mxGeometry x="630" y="679.9999999999999" width="179" height="30" as="geometry"/>
                </mxCell>
                <mxCell id="FahL4Kak68dEMQJMIKo--28" value="ns:QuantityValue" style="rounded=0;whiteSpace=wrap;html=1;snapToPoint=1;points=[[0.1,0],[0.2,0],[0.3,0],[0.4,0],[0.5,0],[0.6,0],[0.7,0],[0.8,0],[0.9,0],[0,0.1],[0,0.3],[0,0.5],[0,0.7],[0,0.9],[0.1,1],[0.2,1],[0.3,1],[0.4,1],[0.5,1],[0.6,1],[0.7,1],[0.8,1],[0.9,1],[1,0.1],[1,0.3],[1,0.5],[1,0.7],[1,0.9]];" parent="1" vertex="1">
                    <mxGeometry x="630" y="649.9999999999999" width="179" height="30" as="geometry"/>
                </mxCell>
                <mxCell id="FahL4Kak68dEMQJMIKo--29" value="ns:isDefinedBy" style="edgeStyle=none;html=1;exitX=1;exitY=0.5;exitDx=0;exitDy=0;entryX=0.5;entryY=0;entryDx=0;entryDy=0;" parent="1" source="FahL4Kak68dEMQJMIKo--30" target="FahL4Kak68dEMQJMIKo--38" edge="1">
                    <mxGeometry relative="1" as="geometry"/>
                </mxCell>
                <mxCell id="FahL4Kak68dEMQJMIKo--30" value="ns:Interior" style="rounded=0;whiteSpace=wrap;html=1;snapToPoint=1;points=[[0.1,0],[0.2,0],[0.3,0],[0.4,0],[0.5,0],[0.6,0],[0.7,0],[0.8,0],[0.9,0],[0,0.1],[0,0.3],[0,0.5],[0,0.7],[0,0.9],[0.1,1],[0.2,1],[0.3,1],[0.4,1],[0.5,1],[0.6,1],[0.7,1],[0.8,1],[0.9,1],[1,0.1],[1,0.3],[1,0.5],[1,0.7],[1,0.9]];" parent="1" vertex="1">
                    <mxGeometry x="2100" y="430" width="100" height="30" as="geometry"/>
                </mxCell>
                <mxCell id="FahL4Kak68dEMQJMIKo--31" value="ns:SpatialExtent" style="rounded=0;whiteSpace=wrap;html=1;snapToPoint=1;points=[[0.1,0],[0.2,0],[0.3,0],[0.4,0],[0.5,0],[0.6,0],[0.7,0],[0.8,0],[0.9,0],[0,0.1],[0,0.3],[0,0.5],[0,0.7],[0,0.9],[0.1,1],[0.2,1],[0.3,1],[0.4,1],[0.5,1],[0.6,1],[0.7,1],[0.8,1],[0.9,1],[1,0.1],[1,0.3],[1,0.5],[1,0.7],[1,0.9]];" parent="1" vertex="1">
                    <mxGeometry x="2020" y="495" width="100" height="30" as="geometry"/>
                </mxCell>
                <mxCell id="FahL4Kak68dEMQJMIKo--32" value="" style="endArrow=classic;html=1;exitX=0.5;exitY=0;exitDx=0;exitDy=0;endSize=8;arcSize=0;entryX=0;entryY=0.5;entryDx=0;entryDy=0;" parent="1" source="FahL4Kak68dEMQJMIKo--31" target="FahL4Kak68dEMQJMIKo--30" edge="1">
                    <mxGeometry width="50" height="50" relative="1" as="geometry">
                        <mxPoint x="1940" y="550" as="sourcePoint"/>
                        <mxPoint x="2060" y="415" as="targetPoint"/>
                    </mxGeometry>
                </mxCell>
                <mxCell id="FahL4Kak68dEMQJMIKo--33" value="&lt;div&gt;ns:contains&lt;/div&gt;" style="text;html=1;align=center;verticalAlign=middle;resizable=0;points=[];labelBackgroundColor=#ffffff;" parent="FahL4Kak68dEMQJMIKo--32" vertex="1" connectable="0">
                    <mxGeometry x="-0.1269" relative="1" as="geometry">
                        <mxPoint x="4.17" as="offset"/>
                    </mxGeometry>
                </mxCell>
                <mxCell id="FahL4Kak68dEMQJMIKo--34" style="edgeStyle=none;html=1;exitX=0.2;exitY=1;exitDx=0;exitDy=0;entryX=0.3;entryY=0;entryDx=0;entryDy=0;" parent="1" source="FahL4Kak68dEMQJMIKo--38" target="FahL4Kak68dEMQJMIKo--41" edge="1">
                    <mxGeometry relative="1" as="geometry"/>
                </mxCell>
                <mxCell id="FahL4Kak68dEMQJMIKo--35" value="ns:hasFirst" style="edgeLabel;html=1;align=center;verticalAlign=middle;resizable=0;points=[];" parent="FahL4Kak68dEMQJMIKo--34" vertex="1" connectable="0">
                    <mxGeometry x="-0.2182" y="-1" relative="1" as="geometry">
                        <mxPoint as="offset"/>
                    </mxGeometry>
                </mxCell>
                <mxCell id="FahL4Kak68dEMQJMIKo--36" style="edgeStyle=none;html=1;exitX=0.7;exitY=1;exitDx=0;exitDy=0;entryX=0.6;entryY=0;entryDx=0;entryDy=0;" parent="1" source="FahL4Kak68dEMQJMIKo--38" target="FahL4Kak68dEMQJMIKo--41" edge="1">
                    <mxGeometry relative="1" as="geometry"/>
                </mxCell>
                <mxCell id="FahL4Kak68dEMQJMIKo--37" value="ns:hasLast" style="edgeLabel;html=1;align=center;verticalAlign=middle;resizable=0;points=[];" parent="FahL4Kak68dEMQJMIKo--36" vertex="1" connectable="0">
                    <mxGeometry x="-0.0735" y="1" relative="1" as="geometry">
                        <mxPoint as="offset"/>
                    </mxGeometry>
                </mxCell>
                <mxCell id="FahL4Kak68dEMQJMIKo--38" value="ns:PIS-Squence" style="rounded=0;whiteSpace=wrap;html=1;snapToPoint=1;points=[[0.1,0],[0.2,0],[0.3,0],[0.4,0],[0.5,0],[0.6,0],[0.7,0],[0.8,0],[0.9,0],[0,0.1],[0,0.3],[0,0.5],[0,0.7],[0,0.9],[0.1,1],[0.2,1],[0.3,1],[0.4,1],[0.5,1],[0.6,1],[0.7,1],[0.8,1],[0.9,1],[1,0.1],[1,0.3],[1,0.5],[1,0.7],[1,0.9]];" parent="1" vertex="1">
                    <mxGeometry x="2200" y="495.0000000000002" width="120" height="30" as="geometry"/>
                </mxCell>
                <mxCell id="FahL4Kak68dEMQJMIKo--39" value="ns:constitutedBy" style="edgeStyle=none;html=1;exitX=0.5;exitY=1;exitDx=0;exitDy=0;entryX=0.5;entryY=0;entryDx=0;entryDy=0;" parent="1" source="FahL4Kak68dEMQJMIKo--41" target="FahL4Kak68dEMQJMIKo--45" edge="1">
                    <mxGeometry relative="1" as="geometry"/>
                </mxCell>
                <mxCell id="FahL4Kak68dEMQJMIKo--40" value="ns:hasNext" style="edgeStyle=none;html=1;exitX=1;exitY=0.5;exitDx=0;exitDy=0;entryX=0.844;entryY=-0.033;entryDx=0;entryDy=0;entryPerimeter=0;" parent="1" source="FahL4Kak68dEMQJMIKo--41" target="FahL4Kak68dEMQJMIKo--41" edge="1">
                    <mxGeometry relative="1" as="geometry">
                        <mxPoint x="2300" y="550" as="targetPoint"/>
                        <Array as="points">
                            <mxPoint x="2390" y="580"/>
                            <mxPoint x="2390" y="540"/>
                            <mxPoint x="2350" y="530"/>
                            <mxPoint x="2320" y="540"/>
                        </Array>
                    </mxGeometry>
                </mxCell>
                <mxCell id="FahL4Kak68dEMQJMIKo--41" value="ns:PIS-SequenceElement" style="rounded=0;whiteSpace=wrap;html=1;snapToPoint=1;points=[[0.1,0],[0.2,0],[0.3,0],[0.4,0],[0.5,0],[0.6,0],[0.7,0],[0.8,0],[0.9,0],[0,0.1],[0,0.3],[0,0.5],[0,0.7],[0,0.9],[0.1,1],[0.2,1],[0.3,1],[0.4,1],[0.5,1],[0.6,1],[0.7,1],[0.8,1],[0.9,1],[1,0.1],[1,0.3],[1,0.5],[1,0.7],[1,0.9]];" parent="1" vertex="1">
                    <mxGeometry x="2170" y="580" width="180" height="30" as="geometry"/>
                </mxCell>
                <mxCell id="FahL4Kak68dEMQJMIKo--42" value="ns:hasReferenceSystem" style="edgeStyle=none;html=1;exitX=0.5;exitY=1;exitDx=0;exitDy=0;entryX=0.5;entryY=0;entryDx=0;entryDy=0;" parent="1" source="FahL4Kak68dEMQJMIKo--45" target="FahL4Kak68dEMQJMIKo--46" edge="1">
                    <mxGeometry relative="1" as="geometry"/>
                </mxCell>
                <mxCell id="FahL4Kak68dEMQJMIKo--43" style="edgeStyle=none;html=1;exitX=0.5;exitY=1;exitDx=0;exitDy=0;entryX=0.5;entryY=0;entryDx=0;entryDy=0;" parent="1" source="FahL4Kak68dEMQJMIKo--45" target="FahL4Kak68dEMQJMIKo--47" edge="1">
                    <mxGeometry relative="1" as="geometry"/>
                </mxCell>
                <mxCell id="FahL4Kak68dEMQJMIKo--44" value="ns:hasValue" style="edgeLabel;html=1;align=center;verticalAlign=middle;resizable=0;points=[];" parent="FahL4Kak68dEMQJMIKo--43" vertex="1" connectable="0">
                    <mxGeometry x="-0.022" relative="1" as="geometry">
                        <mxPoint as="offset"/>
                    </mxGeometry>
                </mxCell>
                <mxCell id="FahL4Kak68dEMQJMIKo--45" value="ns:PointInSpace" style="rounded=0;whiteSpace=wrap;html=1;snapToPoint=1;points=[[0.1,0],[0.2,0],[0.3,0],[0.4,0],[0.5,0],[0.6,0],[0.7,0],[0.8,0],[0.9,0],[0,0.1],[0,0.3],[0,0.5],[0,0.7],[0,0.9],[0.1,1],[0.2,1],[0.3,1],[0.4,1],[0.5,1],[0.6,1],[0.7,1],[0.8,1],[0.9,1],[1,0.1],[1,0.3],[1,0.5],[1,0.7],[1,0.9]];" parent="1" vertex="1">
                    <mxGeometry x="2200" y="650.0000000000002" width="120" height="30" as="geometry"/>
                </mxCell>
                <mxCell id="FahL4Kak68dEMQJMIKo--46" value="ns:ReferenceSystem" style="rounded=0;whiteSpace=wrap;html=1;snapToPoint=1;points=[[0.1,0],[0.2,0],[0.3,0],[0.4,0],[0.5,0],[0.6,0],[0.7,0],[0.8,0],[0.9,0],[0,0.1],[0,0.3],[0,0.5],[0,0.7],[0,0.9],[0.1,1],[0.2,1],[0.3,1],[0.4,1],[0.5,1],[0.6,1],[0.7,1],[0.8,1],[0.9,1],[1,0.1],[1,0.3],[1,0.5],[1,0.7],[1,0.9]];" parent="1" vertex="1">
                    <mxGeometry x="2070" y="730.0000000000002" width="120" height="30" as="geometry"/>
                </mxCell>
                <mxCell id="FahL4Kak68dEMQJMIKo--47" value="ns:Value" style="rounded=0;whiteSpace=wrap;html=1;snapToPoint=1;points=[[0.1,0],[0.2,0],[0.3,0],[0.4,0],[0.5,0],[0.6,0],[0.7,0],[0.8,0],[0.9,0],[0,0.1],[0,0.3],[0,0.5],[0,0.7],[0,0.9],[0.1,1],[0.2,1],[0.3,1],[0.4,1],[0.5,1],[0.6,1],[0.7,1],[0.8,1],[0.9,1],[1,0.1],[1,0.3],[1,0.5],[1,0.7],[1,0.9]];" parent="1" vertex="1">
                    <mxGeometry x="2360" y="730.0000000000002" width="120" height="30" as="geometry"/>
                </mxCell>
                <mxCell id="FahL4Kak68dEMQJMIKo--48" value="(some) ns:nameAsString: xsd:&lt;i&gt;string&lt;/i&gt;" style="rounded=0;whiteSpace=wrap;html=1;snapToPoint=1;points=[[0.1,0],[0.2,0],[0.3,0],[0.4,0],[0.5,0],[0.6,0],[0.7,0],[0.8,0],[0.9,0],[0,0.1],[0,0.3],[0,0.5],[0,0.7],[0,0.9],[0.1,1],[0.2,1],[0.3,1],[0.4,1],[0.5,1],[0.6,1],[0.7,1],[0.8,1],[0.9,1],[1,0.1],[1,0.3],[1,0.5],[1,0.7],[1,0.9]];dashed=1;" parent="1" vertex="1">
                    <mxGeometry x="1850" y="160" width="170" height="30" as="geometry"/>
                </mxCell>
                <mxCell id="FahL4Kak68dEMQJMIKo--49" value="ns:NameStub" style="rounded=0;whiteSpace=wrap;html=1;snapToPoint=1;points=[[0.1,0],[0.2,0],[0.3,0],[0.4,0],[0.5,0],[0.6,0],[0.7,0],[0.8,0],[0.9,0],[0,0.1],[0,0.3],[0,0.5],[0,0.7],[0,0.9],[0.1,1],[0.2,1],[0.3,1],[0.4,1],[0.5,1],[0.6,1],[0.7,1],[0.8,1],[0.9,1],[1,0.1],[1,0.3],[1,0.5],[1,0.7],[1,0.9]];" parent="1" vertex="1">
                    <mxGeometry x="1850" y="130" width="170" height="30" as="geometry"/>
                </mxCell>
                <mxCell id="FahL4Kak68dEMQJMIKo--50" value="ns:Plan" style="rounded=0;whiteSpace=wrap;html=1;snapToPoint=1;points=[[0.1,0],[0.2,0],[0.3,0],[0.4,0],[0.5,0],[0.6,0],[0.7,0],[0.8,0],[0.9,0],[0,0.1],[0,0.3],[0,0.5],[0,0.7],[0,0.9],[0.1,1],[0.2,1],[0.3,1],[0.4,1],[0.5,1],[0.6,1],[0.7,1],[0.8,1],[0.9,1],[1,0.1],[1,0.3],[1,0.5],[1,0.7],[1,0.9]];" parent="1" vertex="1">
                    <mxGeometry x="1351.25" y="525.0000000000002" width="60" height="30" as="geometry"/>
                </mxCell>
                <mxCell id="FahL4Kak68dEMQJMIKo--51" value="ns:Situation" style="rounded=0;whiteSpace=wrap;html=1;snapToPoint=1;points=[[0.1,0],[0.2,0],[0.3,0],[0.4,0],[0.5,0],[0.6,0],[0.7,0],[0.8,0],[0.9,0],[0,0.1],[0,0.3],[0,0.5],[0,0.7],[0,0.9],[0.1,1],[0.2,1],[0.3,1],[0.4,1],[0.5,1],[0.6,1],[0.7,1],[0.8,1],[0.9,1],[1,0.1],[1,0.3],[1,0.5],[1,0.7],[1,0.9]];" parent="1" vertex="1">
                    <mxGeometry x="1131.25" y="525" width="80" height="30" as="geometry"/>
                </mxCell>
                <mxCell id="FahL4Kak68dEMQJMIKo--52" value="ns:Situation" style="rounded=0;whiteSpace=wrap;html=1;snapToPoint=1;points=[[0.1,0],[0.2,0],[0.3,0],[0.4,0],[0.5,0],[0.6,0],[0.7,0],[0.8,0],[0.9,0],[0,0.1],[0,0.3],[0,0.5],[0,0.7],[0,0.9],[0.1,1],[0.2,1],[0.3,1],[0.4,1],[0.5,1],[0.6,1],[0.7,1],[0.8,1],[0.9,1],[1,0.1],[1,0.3],[1,0.5],[1,0.7],[1,0.9]];" parent="1" vertex="1">
                    <mxGeometry x="1501.25" y="525" width="80" height="30" as="geometry"/>
                </mxCell>
                <mxCell id="FahL4Kak68dEMQJMIKo--53" value="ns:PlanDescription" style="rounded=0;whiteSpace=wrap;html=1;snapToPoint=1;points=[[0.1,0],[0.2,0],[0.3,0],[0.4,0],[0.5,0],[0.6,0],[0.7,0],[0.8,0],[0.9,0],[0,0.1],[0,0.3],[0,0.5],[0,0.7],[0,0.9],[0.1,1],[0.2,1],[0.3,1],[0.4,1],[0.5,1],[0.6,1],[0.7,1],[0.8,1],[0.9,1],[1,0.1],[1,0.3],[1,0.5],[1,0.7],[1,0.9]];" parent="1" vertex="1">
                    <mxGeometry x="1301.25" y="685" width="120" height="30" as="geometry"/>
                </mxCell>
                <mxCell id="FahL4Kak68dEMQJMIKo--54" value="" style="endArrow=classic;html=1;exitX=1;exitY=0.5;exitDx=0;exitDy=0;entryX=0;entryY=0.5;entryDx=0;entryDy=0;endSize=8;arcSize=0;" parent="1" source="FahL4Kak68dEMQJMIKo--50" target="FahL4Kak68dEMQJMIKo--52" edge="1">
                    <mxGeometry width="50" height="50" relative="1" as="geometry">
                        <mxPoint x="1441.25" y="679.5" as="sourcePoint"/>
                        <mxPoint x="1638.25" y="679.5" as="targetPoint"/>
                        <Array as="points"/>
                    </mxGeometry>
                </mxCell>
                <mxCell id="FahL4Kak68dEMQJMIKo--55" value="ns:hasGoal" style="text;html=1;align=center;verticalAlign=middle;resizable=0;points=[];labelBackgroundColor=#ffffff;" parent="FahL4Kak68dEMQJMIKo--54" vertex="1" connectable="0">
                    <mxGeometry x="-0.1269" relative="1" as="geometry">
                        <mxPoint as="offset"/>
                    </mxGeometry>
                </mxCell>
                <mxCell id="FahL4Kak68dEMQJMIKo--56" value="" style="endArrow=classic;html=1;exitX=0.5;exitY=1;exitDx=0;exitDy=0;endSize=8;arcSize=0;entryX=0.5;entryY=0;entryDx=0;entryDy=0;" parent="1" source="FahL4Kak68dEMQJMIKo--50" target="FahL4Kak68dEMQJMIKo--53" edge="1">
                    <mxGeometry width="50" height="50" relative="1" as="geometry">
                        <mxPoint x="1381.25" y="555.0000000000002" as="sourcePoint"/>
                        <mxPoint x="1351.25" y="715" as="targetPoint"/>
                        <Array as="points"/>
                    </mxGeometry>
                </mxCell>
                <mxCell id="FahL4Kak68dEMQJMIKo--57" value="ns:hasPlanDescription" style="text;html=1;align=center;verticalAlign=middle;resizable=0;points=[];labelBackgroundColor=#ffffff;" parent="FahL4Kak68dEMQJMIKo--56" vertex="1" connectable="0">
                    <mxGeometry x="-0.1269" relative="1" as="geometry">
                        <mxPoint as="offset"/>
                    </mxGeometry>
                </mxCell>
                <mxCell id="FahL4Kak68dEMQJMIKo--58" value="" style="endArrow=classic;html=1;exitX=0;exitY=0.5;exitDx=0;exitDy=0;endSize=8;arcSize=0;entryX=1;entryY=0.5;entryDx=0;entryDy=0;" parent="1" source="FahL4Kak68dEMQJMIKo--50" target="FahL4Kak68dEMQJMIKo--51" edge="1">
                    <mxGeometry width="50" height="50" relative="1" as="geometry">
                        <mxPoint x="1351.25" y="535.0000000000002" as="sourcePoint"/>
                        <mxPoint x="1171.25" y="540" as="targetPoint"/>
                        <Array as="points"/>
                    </mxGeometry>
                </mxCell>
                <mxCell id="FahL4Kak68dEMQJMIKo--59" value="ns:hasInitialSituation" style="text;html=1;align=center;verticalAlign=middle;resizable=0;points=[];labelBackgroundColor=#ffffff;" parent="FahL4Kak68dEMQJMIKo--58" vertex="1" connectable="0">
                    <mxGeometry x="-0.1269" relative="1" as="geometry">
                        <mxPoint as="offset"/>
                    </mxGeometry>
                </mxCell>
                <mxCell id="4" value="&lt;font style=&quot;font-size: 24px&quot;&gt;Agent Role&lt;/font&gt;" style="text;html=1;align=center;verticalAlign=middle;resizable=0;points=[];autosize=1;strokeColor=none;fillColor=none;" vertex="1" parent="1">
                    <mxGeometry x="260" y="370" width="130" height="20" as="geometry"/>
                </mxCell>
                <mxCell id="5" value="&lt;span style=&quot;font-size: 24px&quot;&gt;Aggregation / Bag&lt;/span&gt;" style="text;html=1;align=center;verticalAlign=middle;resizable=0;points=[];autosize=1;strokeColor=none;fillColor=none;" vertex="1" parent="1">
                    <mxGeometry x="720" y="370" width="210" height="20" as="geometry"/>
                </mxCell>
                <mxCell id="7" value="Event" style="text;html=1;align=center;verticalAlign=middle;resizable=0;points=[];autosize=1;strokeColor=none;fillColor=none;fontSize=24;" vertex="1" parent="1">
                    <mxGeometry x="1330" y="360" width="80" height="30" as="geometry"/>
                </mxCell>
                <mxCell id="9" value="&lt;font style=&quot;font-size: 24px&quot;&gt;Spaciotemporal Extent&lt;/font&gt;" style="text;html=1;align=center;verticalAlign=middle;resizable=0;points=[];autosize=1;strokeColor=none;fillColor=none;" vertex="1" parent="1">
                    <mxGeometry x="210" y="830" width="260" height="20" as="geometry"/>
                </mxCell>
                <mxCell id="10" value="&lt;span style=&quot;font-size: 24px&quot;&gt;Quantities / Units&lt;/span&gt;" style="text;html=1;align=center;verticalAlign=middle;resizable=0;points=[];autosize=1;strokeColor=none;fillColor=none;" vertex="1" parent="1">
                    <mxGeometry x="735" y="830" width="200" height="20" as="geometry"/>
                </mxCell>
                <mxCell id="11" value="&lt;font style=&quot;font-size: 24px&quot;&gt;Plan&lt;/font&gt;" style="text;html=1;align=center;verticalAlign=middle;resizable=0;points=[];autosize=1;strokeColor=none;fillColor=none;" vertex="1" parent="1">
                    <mxGeometry x="1350" y="830" width="60" height="20" as="geometry"/>
                </mxCell>
            </root>
        </mxGraphModel>
    </diagram>
</mxfile>